<?xml version="1.0" encoding="utf-8" standalone="no"?>
<!DOCTYPE svg PUBLIC "-//W3C//DTD SVG 1.1//EN"
  "http://www.w3.org/Graphics/SVG/1.1/DTD/svg11.dtd">
<svg height="361.417323pt" version="1.1" viewBox="0 0 481.889764 361.417323" width="481.889764pt" xmlns="http://www.w3.org/2000/svg" xmlns:xlink="http://www.w3.org/1999/xlink">
 <metadata>
  <rdf:RDF xmlns:cc="http://creativecommons.org/ns#" xmlns:dc="http://purl.org/dc/elements/1.1/" xmlns:rdf="http://www.w3.org/1999/02/22-rdf-syntax-ns#">
   <cc:Work>
    <dc:type rdf:resource="http://purl.org/dc/dcmitype/StillImage"/>
    <dc:date>2021-08-26T13:15:03.943791</dc:date>
    <dc:format>image/svg+xml</dc:format>
    <dc:creator>
     <cc:Agent>
      <dc:title>Matplotlib v3.4.1, https://matplotlib.org/</dc:title>
     </cc:Agent>
    </dc:creator>
   </cc:Work>
  </rdf:RDF>
 </metadata>
 <defs>
  <style type="text/css">*{stroke-linecap:butt;stroke-linejoin:round;}</style>
 </defs>
 <g id="figure_1">
  <g id="patch_1">
   <path d="M 0 361.417323 
L 481.889764 361.417323 
L 481.889764 0 
L 0 0 
z
" style="fill:none;"/>
  </g>
  <g id="axes_1">
   <g id="patch_2">
    <path d="M 52.925 156.808661 
L 422.914764 156.808661 
L 422.914764 22.040319 
L 52.925 22.040319 
z
" style="fill:#ffffff;"/>
   </g>
   <g id="matplotlib.axis_1">
    <g id="xtick_1">
     <g id="line2d_1">
      <defs>
       <path d="M 0 0 
L 0 3.5 
" id="m6025a4e9ef" style="stroke:#000000;stroke-width:0.8;"/>
      </defs>
      <g>
       <use style="stroke:#000000;stroke-width:0.8;" x="69.742717" xlink:href="#m6025a4e9ef" y="156.808661"/>
      </g>
     </g>
    </g>
    <g id="xtick_2">
     <g id="line2d_2">
      <g>
       <use style="stroke:#000000;stroke-width:0.8;" x="111.787008" xlink:href="#m6025a4e9ef" y="156.808661"/>
      </g>
     </g>
    </g>
    <g id="xtick_3">
     <g id="line2d_3">
      <g>
       <use style="stroke:#000000;stroke-width:0.8;" x="153.831299" xlink:href="#m6025a4e9ef" y="156.808661"/>
      </g>
     </g>
    </g>
    <g id="xtick_4">
     <g id="line2d_4">
      <g>
       <use style="stroke:#000000;stroke-width:0.8;" x="195.875591" xlink:href="#m6025a4e9ef" y="156.808661"/>
      </g>
     </g>
    </g>
    <g id="xtick_5">
     <g id="line2d_5">
      <g>
       <use style="stroke:#000000;stroke-width:0.8;" x="237.919882" xlink:href="#m6025a4e9ef" y="156.808661"/>
      </g>
     </g>
    </g>
    <g id="xtick_6">
     <g id="line2d_6">
      <g>
       <use style="stroke:#000000;stroke-width:0.8;" x="279.964173" xlink:href="#m6025a4e9ef" y="156.808661"/>
      </g>
     </g>
    </g>
    <g id="xtick_7">
     <g id="line2d_7">
      <g>
       <use style="stroke:#000000;stroke-width:0.8;" x="322.008465" xlink:href="#m6025a4e9ef" y="156.808661"/>
      </g>
     </g>
    </g>
    <g id="xtick_8">
     <g id="line2d_8">
      <g>
       <use style="stroke:#000000;stroke-width:0.8;" x="364.052756" xlink:href="#m6025a4e9ef" y="156.808661"/>
      </g>
     </g>
    </g>
    <g id="xtick_9">
     <g id="line2d_9">
      <g>
       <use style="stroke:#000000;stroke-width:0.8;" x="406.097047" xlink:href="#m6025a4e9ef" y="156.808661"/>
      </g>
     </g>
    </g>
   </g>
   <g id="matplotlib.axis_2">
    <g id="ytick_1">
     <g id="line2d_10">
      <defs>
       <path d="M 0 0 
L -3.5 0 
" id="m9d68db7683" style="stroke:#000000;stroke-width:0.8;"/>
      </defs>
      <g>
       <use style="stroke:#000000;stroke-width:0.8;" x="52.925" xlink:href="#m9d68db7683" y="156.808661"/>
      </g>
     </g>
     <g id="text_1">
      <!-- 0 -->
      <g transform="translate(39.5625 160.60788)scale(0.1 -0.1)">
       <defs>
        <path d="M 2034 4250 
Q 1547 4250 1301 3770 
Q 1056 3291 1056 2328 
Q 1056 1369 1301 889 
Q 1547 409 2034 409 
Q 2525 409 2770 889 
Q 3016 1369 3016 2328 
Q 3016 3291 2770 3770 
Q 2525 4250 2034 4250 
z
M 2034 4750 
Q 2819 4750 3233 4129 
Q 3647 3509 3647 2328 
Q 3647 1150 3233 529 
Q 2819 -91 2034 -91 
Q 1250 -91 836 529 
Q 422 1150 422 2328 
Q 422 3509 836 4129 
Q 1250 4750 2034 4750 
z
" id="DejaVuSans-30" transform="scale(0.015625)"/>
       </defs>
       <use xlink:href="#DejaVuSans-30"/>
      </g>
     </g>
    </g>
    <g id="ytick_2">
     <g id="line2d_11">
      <g>
       <use style="stroke:#000000;stroke-width:0.8;" x="52.925" xlink:href="#m9d68db7683" y="123.116576"/>
      </g>
     </g>
     <g id="text_2">
      <!-- 5 -->
      <g transform="translate(39.5625 126.915794)scale(0.1 -0.1)">
       <defs>
        <path d="M 691 4666 
L 3169 4666 
L 3169 4134 
L 1269 4134 
L 1269 2991 
Q 1406 3038 1543 3061 
Q 1681 3084 1819 3084 
Q 2600 3084 3056 2656 
Q 3513 2228 3513 1497 
Q 3513 744 3044 326 
Q 2575 -91 1722 -91 
Q 1428 -91 1123 -41 
Q 819 9 494 109 
L 494 744 
Q 775 591 1075 516 
Q 1375 441 1709 441 
Q 2250 441 2565 725 
Q 2881 1009 2881 1497 
Q 2881 1984 2565 2268 
Q 2250 2553 1709 2553 
Q 1456 2553 1204 2497 
Q 953 2441 691 2322 
L 691 4666 
z
" id="DejaVuSans-35" transform="scale(0.015625)"/>
       </defs>
       <use xlink:href="#DejaVuSans-35"/>
      </g>
     </g>
    </g>
    <g id="ytick_3">
     <g id="line2d_12">
      <g>
       <use style="stroke:#000000;stroke-width:0.8;" x="52.925" xlink:href="#m9d68db7683" y="89.42449"/>
      </g>
     </g>
     <g id="text_3">
      <!-- 10 -->
      <g transform="translate(33.2 93.223709)scale(0.1 -0.1)">
       <defs>
        <path d="M 794 531 
L 1825 531 
L 1825 4091 
L 703 3866 
L 703 4441 
L 1819 4666 
L 2450 4666 
L 2450 531 
L 3481 531 
L 3481 0 
L 794 0 
L 794 531 
z
" id="DejaVuSans-31" transform="scale(0.015625)"/>
       </defs>
       <use xlink:href="#DejaVuSans-31"/>
       <use x="63.623047" xlink:href="#DejaVuSans-30"/>
      </g>
     </g>
    </g>
    <g id="ytick_4">
     <g id="line2d_13">
      <g>
       <use style="stroke:#000000;stroke-width:0.8;" x="52.925" xlink:href="#m9d68db7683" y="55.732404"/>
      </g>
     </g>
     <g id="text_4">
      <!-- 15 -->
      <g transform="translate(33.2 59.531623)scale(0.1 -0.1)">
       <use xlink:href="#DejaVuSans-31"/>
       <use x="63.623047" xlink:href="#DejaVuSans-35"/>
      </g>
     </g>
    </g>
    <g id="ytick_5">
     <g id="line2d_14">
      <g>
       <use style="stroke:#000000;stroke-width:0.8;" x="52.925" xlink:href="#m9d68db7683" y="22.040319"/>
      </g>
     </g>
     <g id="text_5">
      <!-- 20 -->
      <g transform="translate(33.2 25.839537)scale(0.1 -0.1)">
       <defs>
        <path d="M 1228 531 
L 3431 531 
L 3431 0 
L 469 0 
L 469 531 
Q 828 903 1448 1529 
Q 2069 2156 2228 2338 
Q 2531 2678 2651 2914 
Q 2772 3150 2772 3378 
Q 2772 3750 2511 3984 
Q 2250 4219 1831 4219 
Q 1534 4219 1204 4116 
Q 875 4013 500 3803 
L 500 4441 
Q 881 4594 1212 4672 
Q 1544 4750 1819 4750 
Q 2544 4750 2975 4387 
Q 3406 4025 3406 3419 
Q 3406 3131 3298 2873 
Q 3191 2616 2906 2266 
Q 2828 2175 2409 1742 
Q 1991 1309 1228 531 
z
" id="DejaVuSans-32" transform="scale(0.015625)"/>
       </defs>
       <use xlink:href="#DejaVuSans-32"/>
       <use x="63.623047" xlink:href="#DejaVuSans-30"/>
      </g>
     </g>
    </g>
    <g id="text_6">
     <!-- Age (Ma) -->
     <g transform="translate(27.120313 111.964334)rotate(-90)scale(0.1 -0.1)">
      <defs>
       <path d="M 2188 4044 
L 1331 1722 
L 3047 1722 
L 2188 4044 
z
M 1831 4666 
L 2547 4666 
L 4325 0 
L 3669 0 
L 3244 1197 
L 1141 1197 
L 716 0 
L 50 0 
L 1831 4666 
z
" id="DejaVuSans-41" transform="scale(0.015625)"/>
       <path d="M 2906 1791 
Q 2906 2416 2648 2759 
Q 2391 3103 1925 3103 
Q 1463 3103 1205 2759 
Q 947 2416 947 1791 
Q 947 1169 1205 825 
Q 1463 481 1925 481 
Q 2391 481 2648 825 
Q 2906 1169 2906 1791 
z
M 3481 434 
Q 3481 -459 3084 -895 
Q 2688 -1331 1869 -1331 
Q 1566 -1331 1297 -1286 
Q 1028 -1241 775 -1147 
L 775 -588 
Q 1028 -725 1275 -790 
Q 1522 -856 1778 -856 
Q 2344 -856 2625 -561 
Q 2906 -266 2906 331 
L 2906 616 
Q 2728 306 2450 153 
Q 2172 0 1784 0 
Q 1141 0 747 490 
Q 353 981 353 1791 
Q 353 2603 747 3093 
Q 1141 3584 1784 3584 
Q 2172 3584 2450 3431 
Q 2728 3278 2906 2969 
L 2906 3500 
L 3481 3500 
L 3481 434 
z
" id="DejaVuSans-67" transform="scale(0.015625)"/>
       <path d="M 3597 1894 
L 3597 1613 
L 953 1613 
Q 991 1019 1311 708 
Q 1631 397 2203 397 
Q 2534 397 2845 478 
Q 3156 559 3463 722 
L 3463 178 
Q 3153 47 2828 -22 
Q 2503 -91 2169 -91 
Q 1331 -91 842 396 
Q 353 884 353 1716 
Q 353 2575 817 3079 
Q 1281 3584 2069 3584 
Q 2775 3584 3186 3129 
Q 3597 2675 3597 1894 
z
M 3022 2063 
Q 3016 2534 2758 2815 
Q 2500 3097 2075 3097 
Q 1594 3097 1305 2825 
Q 1016 2553 972 2059 
L 3022 2063 
z
" id="DejaVuSans-65" transform="scale(0.015625)"/>
       <path id="DejaVuSans-20" transform="scale(0.015625)"/>
       <path d="M 1984 4856 
Q 1566 4138 1362 3434 
Q 1159 2731 1159 2009 
Q 1159 1288 1364 580 
Q 1569 -128 1984 -844 
L 1484 -844 
Q 1016 -109 783 600 
Q 550 1309 550 2009 
Q 550 2706 781 3412 
Q 1013 4119 1484 4856 
L 1984 4856 
z
" id="DejaVuSans-28" transform="scale(0.015625)"/>
       <path d="M 628 4666 
L 1569 4666 
L 2759 1491 
L 3956 4666 
L 4897 4666 
L 4897 0 
L 4281 0 
L 4281 4097 
L 3078 897 
L 2444 897 
L 1241 4097 
L 1241 0 
L 628 0 
L 628 4666 
z
" id="DejaVuSans-4d" transform="scale(0.015625)"/>
       <path d="M 2194 1759 
Q 1497 1759 1228 1600 
Q 959 1441 959 1056 
Q 959 750 1161 570 
Q 1363 391 1709 391 
Q 2188 391 2477 730 
Q 2766 1069 2766 1631 
L 2766 1759 
L 2194 1759 
z
M 3341 1997 
L 3341 0 
L 2766 0 
L 2766 531 
Q 2569 213 2275 61 
Q 1981 -91 1556 -91 
Q 1019 -91 701 211 
Q 384 513 384 1019 
Q 384 1609 779 1909 
Q 1175 2209 1959 2209 
L 2766 2209 
L 2766 2266 
Q 2766 2663 2505 2880 
Q 2244 3097 1772 3097 
Q 1472 3097 1187 3025 
Q 903 2953 641 2809 
L 641 3341 
Q 956 3463 1253 3523 
Q 1550 3584 1831 3584 
Q 2591 3584 2966 3190 
Q 3341 2797 3341 1997 
z
" id="DejaVuSans-61" transform="scale(0.015625)"/>
       <path d="M 513 4856 
L 1013 4856 
Q 1481 4119 1714 3412 
Q 1947 2706 1947 2009 
Q 1947 1309 1714 600 
Q 1481 -109 1013 -844 
L 513 -844 
Q 928 -128 1133 580 
Q 1338 1288 1338 2009 
Q 1338 2731 1133 3434 
Q 928 4138 513 4856 
z
" id="DejaVuSans-29" transform="scale(0.015625)"/>
      </defs>
      <use xlink:href="#DejaVuSans-41"/>
      <use x="68.408203" xlink:href="#DejaVuSans-67"/>
      <use x="131.884766" xlink:href="#DejaVuSans-65"/>
      <use x="193.408203" xlink:href="#DejaVuSans-20"/>
      <use x="225.195312" xlink:href="#DejaVuSans-28"/>
      <use x="264.208984" xlink:href="#DejaVuSans-4d"/>
      <use x="350.488281" xlink:href="#DejaVuSans-61"/>
      <use x="411.767578" xlink:href="#DejaVuSans-29"/>
     </g>
    </g>
   </g>
   <g id="LineCollection_1">
    <path clip-path="url(#p922fb2ed83)" d="M 87.936318 144.612126 
L 87.936318 128.439925 
" style="fill:none;stroke:#0000ff;stroke-width:1.5;"/>
    <path clip-path="url(#p922fb2ed83)" d="M 93.086008 139.423545 
L 93.086008 120.825514 
" style="fill:none;stroke:#0000ff;stroke-width:1.5;"/>
    <path clip-path="url(#p922fb2ed83)" d="M 162.483891 147.105341 
L 162.483891 120.151672 
" style="fill:none;stroke:#0000ff;stroke-width:1.5;"/>
    <path clip-path="url(#p922fb2ed83)" d="M 185.146015 136.189105 
L 185.146015 116.512927 
" style="fill:none;stroke:#0000ff;stroke-width:1.5;"/>
    <path clip-path="url(#p922fb2ed83)" d="M 211.36501 127.159626 
L 211.36501 116.378159 
" style="fill:none;stroke:#0000ff;stroke-width:1.5;"/>
    <path clip-path="url(#p922fb2ed83)" d="M 167.433464 137.941093 
L 167.433464 127.159626 
" style="fill:none;stroke:#0000ff;stroke-width:1.5;"/>
    <path clip-path="url(#p922fb2ed83)" d="M 160.501435 136.59341 
L 160.501435 123.116576 
" style="fill:none;stroke:#0000ff;stroke-width:1.5;"/>
    <path clip-path="url(#p922fb2ed83)" d="M 281.577584 152.765611 
L 281.577584 120.421209 
" style="fill:none;stroke:#0000ff;stroke-width:1.5;"/>
    <path clip-path="url(#p922fb2ed83)" d="M 281.577584 133.224201 
L 281.577584 125.138101 
" style="fill:none;stroke:#0000ff;stroke-width:1.5;"/>
    <path clip-path="url(#p922fb2ed83)" d="M 281.577584 135.245727 
L 281.577584 127.159626 
" style="fill:none;stroke:#0000ff;stroke-width:1.5;"/>
    <path clip-path="url(#p922fb2ed83)" d="M 281.577584 132.55036 
L 281.577584 127.159626 
" style="fill:none;stroke:#0000ff;stroke-width:1.5;"/>
    <path clip-path="url(#p922fb2ed83)" d="M 281.577584 133.898043 
L 281.577584 123.116576 
" style="fill:none;stroke:#0000ff;stroke-width:1.5;"/>
    <path clip-path="url(#p922fb2ed83)" d="M 234.679654 141.310302 
L 234.679654 135.919568 
" style="fill:none;stroke:#0000ff;stroke-width:1.5;"/>
    <path clip-path="url(#p922fb2ed83)" d="M 160.912404 119.073525 
L 160.912404 81.338389 
" style="fill:none;stroke:#0000ff;stroke-width:1.5;"/>
    <path clip-path="url(#p922fb2ed83)" d="M 168.211653 133.224201 
L 168.211653 100.879799 
" style="fill:none;stroke:#0000ff;stroke-width:1.5;"/>
    <path clip-path="url(#p922fb2ed83)" d="M 171.989925 121.095051 
L 171.989925 104.922849 
" style="fill:none;stroke:#0000ff;stroke-width:1.5;"/>
    <path clip-path="url(#p922fb2ed83)" d="M 174.279795 123.790417 
L 174.279795 107.618216 
" style="fill:none;stroke:#0000ff;stroke-width:1.5;"/>
   </g>
   <g id="LineCollection_2">
    <path clip-path="url(#p922fb2ed83)" d="M 87.936318 122.442734 
L 87.936318 90.098332 
" style="fill:none;stroke:#008000;stroke-width:1.5;"/>
    <path clip-path="url(#p922fb2ed83)" d="M 93.086008 112.20034 
L 93.086008 82.012231 
" style="fill:none;stroke:#008000;stroke-width:1.5;"/>
    <path clip-path="url(#p922fb2ed83)" d="M 93.572438 102.092714 
L 93.572438 78.643023 
" style="fill:none;stroke:#008000;stroke-width:1.5;"/>
    <path clip-path="url(#p922fb2ed83)" d="M 102.014025 115.569548 
L 102.014025 83.225146 
" style="fill:none;stroke:#008000;stroke-width:1.5;"/>
    <path clip-path="url(#p922fb2ed83)" d="M 112.23713 94.478303 
L 112.23713 86.796507 
" style="fill:none;stroke:#008000;stroke-width:1.5;"/>
    <path clip-path="url(#p922fb2ed83)" d="M 124.168663 108.426826 
L 124.168663 89.020185 
" style="fill:none;stroke:#008000;stroke-width:1.5;"/>
    <path clip-path="url(#p922fb2ed83)" d="M 130.614719 94.478303 
L 130.614719 88.683264 
" style="fill:none;stroke:#008000;stroke-width:1.5;"/>
    <path clip-path="url(#p922fb2ed83)" d="M 141.613288 97.780127 
L 141.613288 86.19005 
" style="fill:none;stroke:#008000;stroke-width:1.5;"/>
    <path clip-path="url(#p922fb2ed83)" d="M 145.779962 114.019713 
L 145.779962 65.233572 
" style="fill:none;stroke:#008000;stroke-width:1.5;"/>
    <path clip-path="url(#p922fb2ed83)" d="M 160.501435 105.057618 
L 160.501435 93.332772 
" style="fill:none;stroke:#008000;stroke-width:1.5;"/>
    <path clip-path="url(#p922fb2ed83)" d="M 162.483891 101.553641 
L 162.483891 96.162907 
" style="fill:none;stroke:#008000;stroke-width:1.5;"/>
    <path clip-path="url(#p922fb2ed83)" d="M 185.146015 109.572357 
L 185.146015 107.550832 
" style="fill:none;stroke:#008000;stroke-width:1.5;"/>
    <path clip-path="url(#p922fb2ed83)" d="M 185.680609 112.537261 
L 185.680609 110.785272 
" style="fill:none;stroke:#008000;stroke-width:1.5;"/>
    <path clip-path="url(#p922fb2ed83)" d="M 205.004755 119.215032 
L 205.004755 107.072404 
" style="fill:none;stroke:#008000;stroke-width:1.5;"/>
    <path clip-path="url(#p922fb2ed83)" d="M 221.294281 121.162435 
L 221.294281 116.715079 
" style="fill:none;stroke:#008000;stroke-width:1.5;"/>
    <path clip-path="url(#p922fb2ed83)" d="M 174.279236 103.912087 
L 174.279236 96.904133 
" style="fill:none;stroke:#008000;stroke-width:1.5;"/>
    <path clip-path="url(#p922fb2ed83)" d="M 171.989925 102.631788 
L 171.989925 100.745031 
" style="fill:none;stroke:#008000;stroke-width:1.5;"/>
    <path clip-path="url(#p922fb2ed83)" d="M 211.36501 120.623361 
L 211.36501 119.006141 
" style="fill:none;stroke:#008000;stroke-width:1.5;"/>
    <path clip-path="url(#p922fb2ed83)" d="M 234.679654 137.334636 
L 234.679654 121.701508 
" style="fill:none;stroke:#008000;stroke-width:1.5;"/>
    <path clip-path="url(#p922fb2ed83)" d="M 281.577584 114.221865 
L 281.577584 99.397347 
" style="fill:none;stroke:#008000;stroke-width:1.5;"/>
    <path clip-path="url(#p922fb2ed83)" d="M 253.863644 125.084194 
L 253.863644 123.938663 
" style="fill:none;stroke:#008000;stroke-width:1.5;"/>
    <path clip-path="url(#p922fb2ed83)" d="M 250.36362 130.730987 
L 250.36362 123.453497 
" style="fill:none;stroke:#008000;stroke-width:1.5;"/>
    <path clip-path="url(#p922fb2ed83)" d="M 249.110607 130.12453 
L 249.110607 126.485784 
" style="fill:none;stroke:#008000;stroke-width:1.5;"/>
   </g>
   <g id="LineCollection_3">
    <path clip-path="url(#p922fb2ed83)" d="M 112.23713 59.505918 
L 112.23713 54.923794 
" style="fill:none;stroke:#ffa500;stroke-width:1.5;"/>
    <path clip-path="url(#p922fb2ed83)" d="M 162.483891 78.306102 
L 162.483891 72.106758 
" style="fill:none;stroke:#ffa500;stroke-width:1.5;"/>
    <path clip-path="url(#p922fb2ed83)" d="M 185.146015 80.192858 
L 185.146015 74.667356 
" style="fill:none;stroke:#ffa500;stroke-width:1.5;"/>
    <path clip-path="url(#p922fb2ed83)" d="M 185.680609 72.713215 
L 185.680609 66.379103 
" style="fill:none;stroke:#ffa500;stroke-width:1.5;"/>
    <path clip-path="url(#p922fb2ed83)" d="M 205.004755 96.095523 
L 205.004755 93.804461 
" style="fill:none;stroke:#ffa500;stroke-width:1.5;"/>
    <path clip-path="url(#p922fb2ed83)" d="M 221.294281 105.394539 
L 221.294281 95.017376 
" style="fill:none;stroke:#ffa500;stroke-width:1.5;"/>
   </g>
   <g id="line2d_15">
    <path clip-path="url(#p922fb2ed83)" d="M 71.424488 156.808661 
L 78.151575 156.808661 
L 86.560433 156.808661 
L 94.969291 156.808661 
L 103.37815 156.808661 
L 111.787008 156.808661 
L 120.195866 156.808661 
L 128.604724 156.808661 
L 137.013583 156.808661 
L 145.422441 156.808661 
L 153.831299 156.808661 
L 162.240157 156.808661 
L 170.649016 156.808661 
L 179.057874 156.808661 
L 187.466732 156.808661 
L 195.875591 156.808661 
L 204.284449 156.808661 
L 212.693307 156.808661 
L 221.102165 156.808661 
L 229.511024 156.808661 
L 237.919882 156.808661 
L 246.32874 156.808661 
L 254.737598 156.808661 
L 263.146457 156.808661 
L 271.555315 156.808661 
L 279.964173 156.808661 
L 288.373031 156.808661 
L 296.78189 156.808661 
L 305.190748 156.808661 
L 313.599606 156.808661 
L 322.008465 156.808661 
L 330.417323 156.808661 
L 338.826181 156.808661 
L 347.235039 156.808661 
L 355.643898 156.808661 
L 364.052756 156.808661 
L 372.461614 156.808661 
L 380.870472 156.808661 
L 389.279331 156.808661 
L 397.688189 156.808661 
L 406.097047 156.808661 
" style="fill:none;stroke:#0000ff;stroke-linecap:square;stroke-width:1.5;"/>
   </g>
   <g id="line2d_16">
    <path clip-path="url(#p922fb2ed83)" d="M 71.424488 156.808661 
L 78.151575 156.808661 
L 86.560433 156.808661 
L 94.969291 156.808661 
L 103.37815 156.808661 
L 111.787008 156.808661 
L 120.195866 156.808661 
L 128.604724 156.808661 
L 137.013583 156.808661 
L 145.422441 156.808661 
L 153.831299 156.808661 
L 162.240157 156.808661 
L 170.649016 156.808661 
L 179.057874 156.808661 
L 187.466732 156.808661 
L 195.875591 156.808661 
L 204.284449 156.808661 
L 212.693307 156.808661 
L 221.102165 156.808661 
L 229.511024 156.808661 
L 237.919882 156.808661 
L 246.32874 156.808661 
L 254.737598 156.808661 
L 263.146457 156.808661 
L 271.555315 156.808661 
L 279.964173 156.808661 
L 288.373031 156.808661 
L 296.78189 156.808661 
L 305.190748 156.808661 
L 313.599606 156.808661 
L 322.008465 156.808661 
L 330.417323 156.808661 
L 338.826181 156.808661 
L 347.235039 156.808661 
L 355.643898 156.808661 
L 364.052756 156.808661 
L 372.461614 156.808661 
L 380.870472 156.808661 
L 389.279331 156.808661 
L 397.688189 156.808661 
L 406.097047 156.808661 
" style="fill:none;stroke:#008000;stroke-linecap:square;stroke-width:1.5;"/>
   </g>
   <g id="line2d_17">
    <path clip-path="url(#p922fb2ed83)" d="M 71.424488 156.808661 
L 78.151575 156.808661 
L 86.560433 156.808661 
L 94.969291 156.808661 
L 103.37815 156.808661 
L 111.787008 156.808661 
L 120.195866 156.808661 
L 128.604724 156.808661 
L 137.013583 156.808661 
L 145.422441 156.808661 
L 153.831299 156.808661 
L 162.240157 156.808661 
L 170.649016 156.808661 
L 179.057874 156.808661 
L 187.466732 156.808661 
L 195.875591 156.808661 
L 204.284449 156.808661 
L 212.693307 156.808661 
L 221.102165 156.808661 
L 229.511024 156.808661 
L 237.919882 156.808661 
L 246.32874 156.808661 
L 254.737598 156.808661 
L 263.146457 156.808661 
L 271.555315 156.808661 
L 279.964173 156.808661 
L 288.373031 156.808661 
L 296.78189 156.808661 
L 305.190748 156.808661 
L 313.599606 156.808661 
L 322.008465 156.808661 
L 330.417323 156.808661 
L 338.826181 156.808661 
L 347.235039 156.808661 
L 355.643898 156.808661 
L 364.052756 156.808661 
L 372.461614 156.808661 
L 380.870472 156.808661 
L 389.279331 156.808661 
L 397.688189 156.808661 
L 406.097047 156.808661 
" style="fill:none;stroke:#ffa500;stroke-linecap:square;stroke-width:1.5;"/>
   </g>
   <g id="line2d_18">
    <defs>
     <path d="M -0 4.242641 
L 2.545584 0 
L 0 -4.242641 
L -2.545584 -0 
z
" id="m8ab81d44c2" style="stroke:#0000ff;stroke-linejoin:miter;"/>
    </defs>
    <g clip-path="url(#p922fb2ed83)">
     <use style="fill:#0000ff;stroke:#0000ff;stroke-linejoin:miter;" x="87.936318" xlink:href="#m8ab81d44c2" y="136.526026"/>
     <use style="fill:#0000ff;stroke:#0000ff;stroke-linejoin:miter;" x="93.086008" xlink:href="#m8ab81d44c2" y="130.12453"/>
     <use style="fill:#0000ff;stroke:#0000ff;stroke-linejoin:miter;" x="162.483891" xlink:href="#m8ab81d44c2" y="133.628506"/>
     <use style="fill:#0000ff;stroke:#0000ff;stroke-linejoin:miter;" x="185.146015" xlink:href="#m8ab81d44c2" y="126.351016"/>
     <use style="fill:#0000ff;stroke:#0000ff;stroke-linejoin:miter;" x="211.36501" xlink:href="#m8ab81d44c2" y="121.768892"/>
     <use style="fill:#0000ff;stroke:#0000ff;stroke-linejoin:miter;" x="167.433464" xlink:href="#m8ab81d44c2" y="132.55036"/>
     <use style="fill:#0000ff;stroke:#0000ff;stroke-linejoin:miter;" x="160.501435" xlink:href="#m8ab81d44c2" y="129.854993"/>
     <use style="fill:#0000ff;stroke:#0000ff;stroke-linejoin:miter;" x="281.577584" xlink:href="#m8ab81d44c2" y="136.59341"/>
     <use style="fill:#0000ff;stroke:#0000ff;stroke-linejoin:miter;" x="281.577584" xlink:href="#m8ab81d44c2" y="129.181151"/>
     <use style="fill:#0000ff;stroke:#0000ff;stroke-linejoin:miter;" x="281.577584" xlink:href="#m8ab81d44c2" y="131.202676"/>
     <use style="fill:#0000ff;stroke:#0000ff;stroke-linejoin:miter;" x="281.577584" xlink:href="#m8ab81d44c2" y="129.854993"/>
     <use style="fill:#0000ff;stroke:#0000ff;stroke-linejoin:miter;" x="281.577584" xlink:href="#m8ab81d44c2" y="128.507309"/>
     <use style="fill:#0000ff;stroke:#0000ff;stroke-linejoin:miter;" x="234.679654" xlink:href="#m8ab81d44c2" y="138.614935"/>
     <use style="fill:#0000ff;stroke:#0000ff;stroke-linejoin:miter;" x="160.912404" xlink:href="#m8ab81d44c2" y="100.205957"/>
     <use style="fill:#0000ff;stroke:#0000ff;stroke-linejoin:miter;" x="168.211653" xlink:href="#m8ab81d44c2" y="117.052"/>
     <use style="fill:#0000ff;stroke:#0000ff;stroke-linejoin:miter;" x="171.989925" xlink:href="#m8ab81d44c2" y="113.00895"/>
     <use style="fill:#0000ff;stroke:#0000ff;stroke-linejoin:miter;" x="174.279795" xlink:href="#m8ab81d44c2" y="115.704317"/>
    </g>
   </g>
   <g id="line2d_19">
    <defs>
     <path d="M -3 3 
L 3 3 
L 3 -3 
L -3 -3 
z
" id="m8329114075" style="stroke:#008000;stroke-linejoin:miter;"/>
    </defs>
    <g clip-path="url(#p922fb2ed83)">
     <use style="fill:#008000;stroke:#008000;stroke-linejoin:miter;" x="87.936318" xlink:href="#m8329114075" y="106.270533"/>
     <use style="fill:#008000;stroke:#008000;stroke-linejoin:miter;" x="93.086008" xlink:href="#m8329114075" y="97.106286"/>
     <use style="fill:#008000;stroke:#008000;stroke-linejoin:miter;" x="93.572438" xlink:href="#m8329114075" y="90.367868"/>
     <use style="fill:#008000;stroke:#008000;stroke-linejoin:miter;" x="102.014025" xlink:href="#m8329114075" y="99.397347"/>
     <use style="fill:#008000;stroke:#008000;stroke-linejoin:miter;" x="112.23713" xlink:href="#m8329114075" y="90.637405"/>
     <use style="fill:#008000;stroke:#008000;stroke-linejoin:miter;" x="124.168663" xlink:href="#m8329114075" y="98.723506"/>
     <use style="fill:#008000;stroke:#008000;stroke-linejoin:miter;" x="130.614719" xlink:href="#m8329114075" y="91.580783"/>
     <use style="fill:#008000;stroke:#008000;stroke-linejoin:miter;" x="141.613288" xlink:href="#m8329114075" y="91.985088"/>
     <use style="fill:#008000;stroke:#008000;stroke-linejoin:miter;" x="145.779962" xlink:href="#m8329114075" y="89.626642"/>
     <use style="fill:#008000;stroke:#008000;stroke-linejoin:miter;" x="160.501435" xlink:href="#m8329114075" y="99.195195"/>
     <use style="fill:#008000;stroke:#008000;stroke-linejoin:miter;" x="162.483891" xlink:href="#m8329114075" y="98.858274"/>
     <use style="fill:#008000;stroke:#008000;stroke-linejoin:miter;" x="185.146015" xlink:href="#m8329114075" y="108.561595"/>
     <use style="fill:#008000;stroke:#008000;stroke-linejoin:miter;" x="185.680609" xlink:href="#m8329114075" y="111.661267"/>
     <use style="fill:#008000;stroke:#008000;stroke-linejoin:miter;" x="205.004755" xlink:href="#m8329114075" y="113.143718"/>
     <use style="fill:#008000;stroke:#008000;stroke-linejoin:miter;" x="221.294281" xlink:href="#m8329114075" y="118.938757"/>
     <use style="fill:#008000;stroke:#008000;stroke-linejoin:miter;" x="174.279236" xlink:href="#m8329114075" y="100.40811"/>
     <use style="fill:#008000;stroke:#008000;stroke-linejoin:miter;" x="171.989925" xlink:href="#m8329114075" y="101.688409"/>
     <use style="fill:#008000;stroke:#008000;stroke-linejoin:miter;" x="211.36501" xlink:href="#m8329114075" y="119.814751"/>
     <use style="fill:#008000;stroke:#008000;stroke-linejoin:miter;" x="234.679654" xlink:href="#m8329114075" y="129.518072"/>
     <use style="fill:#008000;stroke:#008000;stroke-linejoin:miter;" x="281.577584" xlink:href="#m8329114075" y="106.809606"/>
     <use style="fill:#008000;stroke:#008000;stroke-linejoin:miter;" x="253.863644" xlink:href="#m8329114075" y="124.511428"/>
     <use style="fill:#008000;stroke:#008000;stroke-linejoin:miter;" x="250.36362" xlink:href="#m8329114075" y="127.092242"/>
     <use style="fill:#008000;stroke:#008000;stroke-linejoin:miter;" x="249.110607" xlink:href="#m8329114075" y="128.305157"/>
    </g>
   </g>
   <g id="line2d_20">
    <defs>
     <path d="M 0 -3 
L -2.598076 -1.5 
L -2.598076 1.5 
L -0 3 
L 2.598076 1.5 
L 2.598076 -1.5 
z
" id="m34adc2ab39" style="stroke:#ffa500;stroke-linejoin:miter;"/>
    </defs>
    <g clip-path="url(#p922fb2ed83)">
     <use style="fill:#ffa500;stroke:#ffa500;stroke-linejoin:miter;" x="112.23713" xlink:href="#m34adc2ab39" y="57.214856"/>
     <use style="fill:#ffa500;stroke:#ffa500;stroke-linejoin:miter;" x="162.483891" xlink:href="#m34adc2ab39" y="75.20643"/>
     <use style="fill:#ffa500;stroke:#ffa500;stroke-linejoin:miter;" x="185.146015" xlink:href="#m34adc2ab39" y="77.430107"/>
     <use style="fill:#ffa500;stroke:#ffa500;stroke-linejoin:miter;" x="185.680609" xlink:href="#m34adc2ab39" y="69.546159"/>
     <use style="fill:#ffa500;stroke:#ffa500;stroke-linejoin:miter;" x="205.004755" xlink:href="#m34adc2ab39" y="94.949992"/>
     <use style="fill:#ffa500;stroke:#ffa500;stroke-linejoin:miter;" x="221.294281" xlink:href="#m34adc2ab39" y="100.205957"/>
    </g>
   </g>
   <g id="patch_3">
    <path d="M 52.925 156.808661 
L 52.925 22.040319 
" style="fill:none;stroke:#000000;stroke-linecap:square;stroke-linejoin:miter;stroke-width:0.8;"/>
   </g>
   <g id="patch_4">
    <path d="M 52.925 156.808661 
L 422.914764 156.808661 
" style="fill:none;stroke:#000000;stroke-linecap:square;stroke-linejoin:miter;stroke-width:0.8;"/>
   </g>
   <g id="text_7">
    <g id="patch_5">
     <path d="M 60.026293 38.661669 
L 191.890193 38.661669 
L 191.890193 22.084969 
L 60.026293 22.084969 
z
" style="fill:#ffffff;opacity:0.5;stroke:#ffffff;stroke-linejoin:miter;"/>
    </g>
    <!-- $R^2$ = -5.76, MAE=6.92 $\times 10^6$ a -->
    <g transform="translate(64.024693 32.930889)scale(0.0833 -0.0833)">
     <defs>
      <path d="M 2841 2188 
Q 3044 2119 3236 1894 
Q 3428 1669 3622 1275 
L 4263 0 
L 3584 0 
L 2988 1197 
Q 2756 1666 2539 1819 
Q 2322 1972 1947 1972 
L 1259 1972 
L 1259 0 
L 628 0 
L 628 4666 
L 2053 4666 
Q 2853 4666 3247 4331 
Q 3641 3997 3641 3322 
Q 3641 2881 3436 2590 
Q 3231 2300 2841 2188 
z
M 1259 4147 
L 1259 2491 
L 2053 2491 
Q 2509 2491 2742 2702 
Q 2975 2913 2975 3322 
Q 2975 3731 2742 3939 
Q 2509 4147 2053 4147 
L 1259 4147 
z
" id="DejaVuSans-52" transform="scale(0.015625)"/>
      <path d="M 678 2906 
L 4684 2906 
L 4684 2381 
L 678 2381 
L 678 2906 
z
M 678 1631 
L 4684 1631 
L 4684 1100 
L 678 1100 
L 678 1631 
z
" id="DejaVuSans-3d" transform="scale(0.015625)"/>
      <path d="M 313 2009 
L 1997 2009 
L 1997 1497 
L 313 1497 
L 313 2009 
z
" id="DejaVuSans-2d" transform="scale(0.015625)"/>
      <path d="M 684 794 
L 1344 794 
L 1344 0 
L 684 0 
L 684 794 
z
" id="DejaVuSans-2e" transform="scale(0.015625)"/>
      <path d="M 525 4666 
L 3525 4666 
L 3525 4397 
L 1831 0 
L 1172 0 
L 2766 4134 
L 525 4134 
L 525 4666 
z
" id="DejaVuSans-37" transform="scale(0.015625)"/>
      <path d="M 2113 2584 
Q 1688 2584 1439 2293 
Q 1191 2003 1191 1497 
Q 1191 994 1439 701 
Q 1688 409 2113 409 
Q 2538 409 2786 701 
Q 3034 994 3034 1497 
Q 3034 2003 2786 2293 
Q 2538 2584 2113 2584 
z
M 3366 4563 
L 3366 3988 
Q 3128 4100 2886 4159 
Q 2644 4219 2406 4219 
Q 1781 4219 1451 3797 
Q 1122 3375 1075 2522 
Q 1259 2794 1537 2939 
Q 1816 3084 2150 3084 
Q 2853 3084 3261 2657 
Q 3669 2231 3669 1497 
Q 3669 778 3244 343 
Q 2819 -91 2113 -91 
Q 1303 -91 875 529 
Q 447 1150 447 2328 
Q 447 3434 972 4092 
Q 1497 4750 2381 4750 
Q 2619 4750 2861 4703 
Q 3103 4656 3366 4563 
z
" id="DejaVuSans-36" transform="scale(0.015625)"/>
      <path d="M 750 794 
L 1409 794 
L 1409 256 
L 897 -744 
L 494 -744 
L 750 256 
L 750 794 
z
" id="DejaVuSans-2c" transform="scale(0.015625)"/>
      <path d="M 628 4666 
L 3578 4666 
L 3578 4134 
L 1259 4134 
L 1259 2753 
L 3481 2753 
L 3481 2222 
L 1259 2222 
L 1259 531 
L 3634 531 
L 3634 0 
L 628 0 
L 628 4666 
z
" id="DejaVuSans-45" transform="scale(0.015625)"/>
      <path d="M 703 97 
L 703 672 
Q 941 559 1184 500 
Q 1428 441 1663 441 
Q 2288 441 2617 861 
Q 2947 1281 2994 2138 
Q 2813 1869 2534 1725 
Q 2256 1581 1919 1581 
Q 1219 1581 811 2004 
Q 403 2428 403 3163 
Q 403 3881 828 4315 
Q 1253 4750 1959 4750 
Q 2769 4750 3195 4129 
Q 3622 3509 3622 2328 
Q 3622 1225 3098 567 
Q 2575 -91 1691 -91 
Q 1453 -91 1209 -44 
Q 966 3 703 97 
z
M 1959 2075 
Q 2384 2075 2632 2365 
Q 2881 2656 2881 3163 
Q 2881 3666 2632 3958 
Q 2384 4250 1959 4250 
Q 1534 4250 1286 3958 
Q 1038 3666 1038 3163 
Q 1038 2656 1286 2365 
Q 1534 2075 1959 2075 
z
" id="DejaVuSans-39" transform="scale(0.015625)"/>
      <path d="M 4488 3438 
L 3059 2003 
L 4488 575 
L 4116 197 
L 2681 1631 
L 1247 197 
L 878 575 
L 2303 2003 
L 878 3438 
L 1247 3816 
L 2681 2381 
L 4116 3816 
L 4488 3438 
z
" id="DejaVuSans-d7" transform="scale(0.015625)"/>
     </defs>
     <use transform="translate(0 0.765625)" xlink:href="#DejaVuSans-52"/>
     <use transform="translate(70.439453 39.046875)scale(0.7)" xlink:href="#DejaVuSans-32"/>
     <use transform="translate(117.709961 0.765625)" xlink:href="#DejaVuSans-20"/>
     <use transform="translate(149.49707 0.765625)" xlink:href="#DejaVuSans-3d"/>
     <use transform="translate(233.286133 0.765625)" xlink:href="#DejaVuSans-20"/>
     <use transform="translate(265.073242 0.765625)" xlink:href="#DejaVuSans-2d"/>
     <use transform="translate(301.157227 0.765625)" xlink:href="#DejaVuSans-35"/>
     <use transform="translate(364.780273 0.765625)" xlink:href="#DejaVuSans-2e"/>
     <use transform="translate(388.817383 0.765625)" xlink:href="#DejaVuSans-37"/>
     <use transform="translate(452.44043 0.765625)" xlink:href="#DejaVuSans-36"/>
     <use transform="translate(516.063477 0.765625)" xlink:href="#DejaVuSans-2c"/>
     <use transform="translate(547.850586 0.765625)" xlink:href="#DejaVuSans-20"/>
     <use transform="translate(579.637695 0.765625)" xlink:href="#DejaVuSans-4d"/>
     <use transform="translate(665.916992 0.765625)" xlink:href="#DejaVuSans-41"/>
     <use transform="translate(734.325195 0.765625)" xlink:href="#DejaVuSans-45"/>
     <use transform="translate(797.508789 0.765625)" xlink:href="#DejaVuSans-3d"/>
     <use transform="translate(881.297852 0.765625)" xlink:href="#DejaVuSans-36"/>
     <use transform="translate(944.920898 0.765625)" xlink:href="#DejaVuSans-2e"/>
     <use transform="translate(976.708008 0.765625)" xlink:href="#DejaVuSans-39"/>
     <use transform="translate(1038.581055 0.765625)" xlink:href="#DejaVuSans-32"/>
     <use transform="translate(1102.204102 0.765625)" xlink:href="#DejaVuSans-20"/>
     <use transform="translate(1133.991211 0.765625)" xlink:href="#DejaVuSans-d7"/>
     <use transform="translate(1217.780273 0.765625)" xlink:href="#DejaVuSans-31"/>
     <use transform="translate(1281.40332 0.765625)" xlink:href="#DejaVuSans-30"/>
     <use transform="translate(1345.983398 39.046875)scale(0.7)" xlink:href="#DejaVuSans-36"/>
     <use transform="translate(1393.253906 0.765625)" xlink:href="#DejaVuSans-20"/>
     <use transform="translate(1425.041016 0.765625)" xlink:href="#DejaVuSans-61"/>
    </g>
   </g>
   <g id="text_8">
    <!-- c -->
    <g transform="translate(56.624898 18.612948)scale(0.1 -0.1)">
     <defs>
      <path d="M 3366 3391 
L 3366 2478 
Q 3138 2634 2908 2709 
Q 2678 2784 2431 2784 
Q 1963 2784 1702 2511 
Q 1441 2238 1441 1747 
Q 1441 1256 1702 982 
Q 1963 709 2431 709 
Q 2694 709 2930 787 
Q 3166 866 3366 1019 
L 3366 103 
Q 3103 6 2833 -42 
Q 2563 -91 2291 -91 
Q 1344 -91 809 395 
Q 275 881 275 1747 
Q 275 2613 809 3098 
Q 1344 3584 2291 3584 
Q 2566 3584 2833 3536 
Q 3100 3488 3366 3391 
z
" id="DejaVuSans-Bold-63" transform="scale(0.015625)"/>
     </defs>
     <use xlink:href="#DejaVuSans-Bold-63"/>
    </g>
   </g>
   <g id="legend_1">
    <g id="patch_6">
     <path d="M 354.489617 153.338661 
L 418.056764 153.338661 
Q 419.444764 153.338661 419.444764 151.950661 
L 419.444764 81.33833 
Q 419.444764 79.95033 418.056764 79.95033 
L 354.489617 79.95033 
Q 353.101617 79.95033 353.101617 81.33833 
L 353.101617 151.950661 
Q 353.101617 153.338661 354.489617 153.338661 
z
" style="fill:#ffffff;stroke:#cccccc;stroke-linejoin:miter;"/>
    </g>
    <g id="line2d_21">
     <path d="M 355.877617 85.570646 
L 369.757617 85.570646 
" style="fill:none;stroke:#0000ff;stroke-linecap:square;stroke-width:1.5;"/>
    </g>
    <g id="line2d_22"/>
    <g id="text_9">
     <!-- AFT model -->
     <g transform="translate(375.309617 87.999646)scale(0.0694 -0.0694)">
      <defs>
       <path d="M 628 4666 
L 3309 4666 
L 3309 4134 
L 1259 4134 
L 1259 2759 
L 3109 2759 
L 3109 2228 
L 1259 2228 
L 1259 0 
L 628 0 
L 628 4666 
z
" id="DejaVuSans-46" transform="scale(0.015625)"/>
       <path d="M -19 4666 
L 3928 4666 
L 3928 4134 
L 2272 4134 
L 2272 0 
L 1638 0 
L 1638 4134 
L -19 4134 
L -19 4666 
z
" id="DejaVuSans-54" transform="scale(0.015625)"/>
       <path d="M 3328 2828 
Q 3544 3216 3844 3400 
Q 4144 3584 4550 3584 
Q 5097 3584 5394 3201 
Q 5691 2819 5691 2113 
L 5691 0 
L 5113 0 
L 5113 2094 
Q 5113 2597 4934 2840 
Q 4756 3084 4391 3084 
Q 3944 3084 3684 2787 
Q 3425 2491 3425 1978 
L 3425 0 
L 2847 0 
L 2847 2094 
Q 2847 2600 2669 2842 
Q 2491 3084 2119 3084 
Q 1678 3084 1418 2786 
Q 1159 2488 1159 1978 
L 1159 0 
L 581 0 
L 581 3500 
L 1159 3500 
L 1159 2956 
Q 1356 3278 1631 3431 
Q 1906 3584 2284 3584 
Q 2666 3584 2933 3390 
Q 3200 3197 3328 2828 
z
" id="DejaVuSans-6d" transform="scale(0.015625)"/>
       <path d="M 1959 3097 
Q 1497 3097 1228 2736 
Q 959 2375 959 1747 
Q 959 1119 1226 758 
Q 1494 397 1959 397 
Q 2419 397 2687 759 
Q 2956 1122 2956 1747 
Q 2956 2369 2687 2733 
Q 2419 3097 1959 3097 
z
M 1959 3584 
Q 2709 3584 3137 3096 
Q 3566 2609 3566 1747 
Q 3566 888 3137 398 
Q 2709 -91 1959 -91 
Q 1206 -91 779 398 
Q 353 888 353 1747 
Q 353 2609 779 3096 
Q 1206 3584 1959 3584 
z
" id="DejaVuSans-6f" transform="scale(0.015625)"/>
       <path d="M 2906 2969 
L 2906 4863 
L 3481 4863 
L 3481 0 
L 2906 0 
L 2906 525 
Q 2725 213 2448 61 
Q 2172 -91 1784 -91 
Q 1150 -91 751 415 
Q 353 922 353 1747 
Q 353 2572 751 3078 
Q 1150 3584 1784 3584 
Q 2172 3584 2448 3432 
Q 2725 3281 2906 2969 
z
M 947 1747 
Q 947 1113 1208 752 
Q 1469 391 1925 391 
Q 2381 391 2643 752 
Q 2906 1113 2906 1747 
Q 2906 2381 2643 2742 
Q 2381 3103 1925 3103 
Q 1469 3103 1208 2742 
Q 947 2381 947 1747 
z
" id="DejaVuSans-64" transform="scale(0.015625)"/>
       <path d="M 603 4863 
L 1178 4863 
L 1178 0 
L 603 0 
L 603 4863 
z
" id="DejaVuSans-6c" transform="scale(0.015625)"/>
      </defs>
      <use xlink:href="#DejaVuSans-41"/>
      <use x="68.408203" xlink:href="#DejaVuSans-46"/>
      <use x="124.177734" xlink:href="#DejaVuSans-54"/>
      <use x="185.261719" xlink:href="#DejaVuSans-20"/>
      <use x="217.048828" xlink:href="#DejaVuSans-6d"/>
      <use x="314.460938" xlink:href="#DejaVuSans-6f"/>
      <use x="375.642578" xlink:href="#DejaVuSans-64"/>
      <use x="439.119141" xlink:href="#DejaVuSans-65"/>
      <use x="500.642578" xlink:href="#DejaVuSans-6c"/>
     </g>
    </g>
    <g id="line2d_23">
     <path d="M 355.877617 95.757265 
L 369.757617 95.757265 
" style="fill:none;stroke:#008000;stroke-linecap:square;stroke-width:1.5;"/>
    </g>
    <g id="line2d_24"/>
    <g id="text_10">
     <!-- ZHe model -->
     <g transform="translate(375.309617 98.186265)scale(0.0694 -0.0694)">
      <defs>
       <path d="M 359 4666 
L 4025 4666 
L 4025 4184 
L 1075 531 
L 4097 531 
L 4097 0 
L 288 0 
L 288 481 
L 3238 4134 
L 359 4134 
L 359 4666 
z
" id="DejaVuSans-5a" transform="scale(0.015625)"/>
       <path d="M 628 4666 
L 1259 4666 
L 1259 2753 
L 3553 2753 
L 3553 4666 
L 4184 4666 
L 4184 0 
L 3553 0 
L 3553 2222 
L 1259 2222 
L 1259 0 
L 628 0 
L 628 4666 
z
" id="DejaVuSans-48" transform="scale(0.015625)"/>
      </defs>
      <use xlink:href="#DejaVuSans-5a"/>
      <use x="68.505859" xlink:href="#DejaVuSans-48"/>
      <use x="143.701172" xlink:href="#DejaVuSans-65"/>
      <use x="205.224609" xlink:href="#DejaVuSans-20"/>
      <use x="237.011719" xlink:href="#DejaVuSans-6d"/>
      <use x="334.423828" xlink:href="#DejaVuSans-6f"/>
      <use x="395.605469" xlink:href="#DejaVuSans-64"/>
      <use x="459.082031" xlink:href="#DejaVuSans-65"/>
      <use x="520.605469" xlink:href="#DejaVuSans-6c"/>
     </g>
    </g>
    <g id="line2d_25">
     <path d="M 355.877617 105.943883 
L 369.757617 105.943883 
" style="fill:none;stroke:#ffa500;stroke-linecap:square;stroke-width:1.5;"/>
    </g>
    <g id="line2d_26"/>
    <g id="text_11">
     <!-- MAr model -->
     <g transform="translate(375.309617 108.372883)scale(0.0694 -0.0694)">
      <defs>
       <path d="M 2631 2963 
Q 2534 3019 2420 3045 
Q 2306 3072 2169 3072 
Q 1681 3072 1420 2755 
Q 1159 2438 1159 1844 
L 1159 0 
L 581 0 
L 581 3500 
L 1159 3500 
L 1159 2956 
Q 1341 3275 1631 3429 
Q 1922 3584 2338 3584 
Q 2397 3584 2469 3576 
Q 2541 3569 2628 3553 
L 2631 2963 
z
" id="DejaVuSans-72" transform="scale(0.015625)"/>
      </defs>
      <use xlink:href="#DejaVuSans-4d"/>
      <use x="86.279297" xlink:href="#DejaVuSans-41"/>
      <use x="154.6875" xlink:href="#DejaVuSans-72"/>
      <use x="195.800781" xlink:href="#DejaVuSans-20"/>
      <use x="227.587891" xlink:href="#DejaVuSans-6d"/>
      <use x="325" xlink:href="#DejaVuSans-6f"/>
      <use x="386.181641" xlink:href="#DejaVuSans-64"/>
      <use x="449.658203" xlink:href="#DejaVuSans-65"/>
      <use x="511.181641" xlink:href="#DejaVuSans-6c"/>
     </g>
    </g>
    <g id="LineCollection_4">
     <path d="M 362.817617 119.600502 
L 362.817617 112.660502 
" style="fill:none;stroke:#0000ff;stroke-width:1.5;"/>
    </g>
    <g id="line2d_27"/>
    <g id="line2d_28">
     <g>
      <use style="fill:#0000ff;stroke:#0000ff;stroke-linejoin:miter;" x="362.817617" xlink:href="#m8ab81d44c2" y="116.130502"/>
     </g>
    </g>
    <g id="text_12">
     <!-- AFT data -->
     <g transform="translate(375.309617 118.559502)scale(0.0694 -0.0694)">
      <defs>
       <path d="M 1172 4494 
L 1172 3500 
L 2356 3500 
L 2356 3053 
L 1172 3053 
L 1172 1153 
Q 1172 725 1289 603 
Q 1406 481 1766 481 
L 2356 481 
L 2356 0 
L 1766 0 
Q 1100 0 847 248 
Q 594 497 594 1153 
L 594 3053 
L 172 3053 
L 172 3500 
L 594 3500 
L 594 4494 
L 1172 4494 
z
" id="DejaVuSans-74" transform="scale(0.015625)"/>
      </defs>
      <use xlink:href="#DejaVuSans-41"/>
      <use x="68.408203" xlink:href="#DejaVuSans-46"/>
      <use x="124.177734" xlink:href="#DejaVuSans-54"/>
      <use x="185.261719" xlink:href="#DejaVuSans-20"/>
      <use x="217.048828" xlink:href="#DejaVuSans-64"/>
      <use x="280.525391" xlink:href="#DejaVuSans-61"/>
      <use x="341.804688" xlink:href="#DejaVuSans-74"/>
      <use x="381.013672" xlink:href="#DejaVuSans-61"/>
     </g>
    </g>
    <g id="LineCollection_5">
     <path d="M 362.817617 129.787121 
L 362.817617 122.847121 
" style="fill:none;stroke:#008000;stroke-width:1.5;"/>
    </g>
    <g id="line2d_29"/>
    <g id="line2d_30">
     <g>
      <use style="fill:#008000;stroke:#008000;stroke-linejoin:miter;" x="362.817617" xlink:href="#m8329114075" y="126.317121"/>
     </g>
    </g>
    <g id="text_13">
     <!-- ZHe data -->
     <g transform="translate(375.309617 128.746121)scale(0.0694 -0.0694)">
      <use xlink:href="#DejaVuSans-5a"/>
      <use x="68.505859" xlink:href="#DejaVuSans-48"/>
      <use x="143.701172" xlink:href="#DejaVuSans-65"/>
      <use x="205.224609" xlink:href="#DejaVuSans-20"/>
      <use x="237.011719" xlink:href="#DejaVuSans-64"/>
      <use x="300.488281" xlink:href="#DejaVuSans-61"/>
      <use x="361.767578" xlink:href="#DejaVuSans-74"/>
      <use x="400.976562" xlink:href="#DejaVuSans-61"/>
     </g>
    </g>
    <g id="LineCollection_6">
     <path d="M 362.817617 139.97374 
L 362.817617 133.03374 
" style="fill:none;stroke:#ffa500;stroke-width:1.5;"/>
    </g>
    <g id="line2d_31"/>
    <g id="line2d_32">
     <g>
      <use style="fill:#ffa500;stroke:#ffa500;stroke-linejoin:miter;" x="362.817617" xlink:href="#m34adc2ab39" y="136.50374"/>
     </g>
    </g>
    <g id="text_14">
     <!-- MAr data -->
     <g transform="translate(375.309617 138.93274)scale(0.0694 -0.0694)">
      <use xlink:href="#DejaVuSans-4d"/>
      <use x="86.279297" xlink:href="#DejaVuSans-41"/>
      <use x="154.6875" xlink:href="#DejaVuSans-72"/>
      <use x="195.800781" xlink:href="#DejaVuSans-20"/>
      <use x="227.587891" xlink:href="#DejaVuSans-64"/>
      <use x="291.064453" xlink:href="#DejaVuSans-61"/>
      <use x="352.34375" xlink:href="#DejaVuSans-74"/>
      <use x="391.552734" xlink:href="#DejaVuSans-61"/>
     </g>
    </g>
    <g id="line2d_33">
     <path d="M 355.877617 146.690358 
L 369.757617 146.690358 
" style="fill:none;stroke:#808080;stroke-dasharray:5.55,2.4;stroke-dashoffset:0;stroke-width:1.5;"/>
    </g>
    <g id="line2d_34"/>
    <g id="text_15">
     <!-- exhumation -->
     <g transform="translate(375.309617 149.119358)scale(0.0694 -0.0694)">
      <defs>
       <path d="M 3513 3500 
L 2247 1797 
L 3578 0 
L 2900 0 
L 1881 1375 
L 863 0 
L 184 0 
L 1544 1831 
L 300 3500 
L 978 3500 
L 1906 2253 
L 2834 3500 
L 3513 3500 
z
" id="DejaVuSans-78" transform="scale(0.015625)"/>
       <path d="M 3513 2113 
L 3513 0 
L 2938 0 
L 2938 2094 
Q 2938 2591 2744 2837 
Q 2550 3084 2163 3084 
Q 1697 3084 1428 2787 
Q 1159 2491 1159 1978 
L 1159 0 
L 581 0 
L 581 4863 
L 1159 4863 
L 1159 2956 
Q 1366 3272 1645 3428 
Q 1925 3584 2291 3584 
Q 2894 3584 3203 3211 
Q 3513 2838 3513 2113 
z
" id="DejaVuSans-68" transform="scale(0.015625)"/>
       <path d="M 544 1381 
L 544 3500 
L 1119 3500 
L 1119 1403 
Q 1119 906 1312 657 
Q 1506 409 1894 409 
Q 2359 409 2629 706 
Q 2900 1003 2900 1516 
L 2900 3500 
L 3475 3500 
L 3475 0 
L 2900 0 
L 2900 538 
Q 2691 219 2414 64 
Q 2138 -91 1772 -91 
Q 1169 -91 856 284 
Q 544 659 544 1381 
z
M 1991 3584 
L 1991 3584 
z
" id="DejaVuSans-75" transform="scale(0.015625)"/>
       <path d="M 603 3500 
L 1178 3500 
L 1178 0 
L 603 0 
L 603 3500 
z
M 603 4863 
L 1178 4863 
L 1178 4134 
L 603 4134 
L 603 4863 
z
" id="DejaVuSans-69" transform="scale(0.015625)"/>
       <path d="M 3513 2113 
L 3513 0 
L 2938 0 
L 2938 2094 
Q 2938 2591 2744 2837 
Q 2550 3084 2163 3084 
Q 1697 3084 1428 2787 
Q 1159 2491 1159 1978 
L 1159 0 
L 581 0 
L 581 3500 
L 1159 3500 
L 1159 2956 
Q 1366 3272 1645 3428 
Q 1925 3584 2291 3584 
Q 2894 3584 3203 3211 
Q 3513 2838 3513 2113 
z
" id="DejaVuSans-6e" transform="scale(0.015625)"/>
      </defs>
      <use xlink:href="#DejaVuSans-65"/>
      <use x="59.773438" xlink:href="#DejaVuSans-78"/>
      <use x="118.953125" xlink:href="#DejaVuSans-68"/>
      <use x="182.332031" xlink:href="#DejaVuSans-75"/>
      <use x="245.710938" xlink:href="#DejaVuSans-6d"/>
      <use x="343.123047" xlink:href="#DejaVuSans-61"/>
      <use x="404.402344" xlink:href="#DejaVuSans-74"/>
      <use x="443.611328" xlink:href="#DejaVuSans-69"/>
      <use x="471.394531" xlink:href="#DejaVuSans-6f"/>
      <use x="532.576172" xlink:href="#DejaVuSans-6e"/>
     </g>
    </g>
   </g>
  </g>
  <g id="axes_2">
   <g id="patch_7">
    <path d="M 52.925 319.617323 
L 422.914764 319.617323 
L 422.914764 184.84898 
L 52.925 184.84898 
z
" style="fill:#ffffff;"/>
   </g>
   <g id="Quiver_1"/>
   <g id="Quiver_2"/>
   <g id="Quiver_3"/>
   <g id="Quiver_4"/>
   <g id="Quiver_5"/>
   <g id="Quiver_6"/>
   <g id="Quiver_7"/>
   <g id="Quiver_8"/>
   <g id="Quiver_9"/>
   <g id="Quiver_10"/>
   <g id="Quiver_11"/>
   <g id="PathCollection_1">
    <defs>
     <path d="M 0 -3 
L -2.598076 -1.5 
L -2.598076 1.5 
L -0 3 
L 2.598076 1.5 
L 2.598076 -1.5 
z
" id="m1c98d7db83" style="stroke:#ffa500;"/>
    </defs>
    <g clip-path="url(#p37533d18fc)">
     <use style="fill:#ffa500;stroke:#ffa500;" x="112.23713" xlink:href="#m1c98d7db83" y="210.613516"/>
     <use style="fill:#ffa500;stroke:#ffa500;" x="162.483891" xlink:href="#m1c98d7db83" y="208.406414"/>
     <use style="fill:#ffa500;stroke:#ffa500;" x="185.146015" xlink:href="#m1c98d7db83" y="208.871857"/>
     <use style="fill:#ffa500;stroke:#ffa500;" x="185.680609" xlink:href="#m1c98d7db83" y="208.6016"/>
     <use style="fill:#ffa500;stroke:#ffa500;" x="205.004755" xlink:href="#m1c98d7db83" y="207.295356"/>
     <use style="fill:#ffa500;stroke:#ffa500;" x="221.294281" xlink:href="#m1c98d7db83" y="207.880914"/>
    </g>
   </g>
   <g id="PathCollection_2">
    <defs>
     <path d="M -3 3 
L 3 3 
L 3 -3 
L -3 -3 
z
" id="m6d18e20f08" style="stroke:#008000;"/>
    </defs>
    <g clip-path="url(#p37533d18fc)">
     <use style="fill:#008000;stroke:#008000;" x="87.936318" xlink:href="#m6d18e20f08" y="209.99793"/>
     <use style="fill:#008000;stroke:#008000;" x="93.086008" xlink:href="#m6d18e20f08" y="208.466471"/>
     <use style="fill:#008000;stroke:#008000;" x="93.572438" xlink:href="#m6d18e20f08" y="208.466471"/>
     <use style="fill:#008000;stroke:#008000;" x="102.014025" xlink:href="#m6d18e20f08" y="209.877815"/>
     <use style="fill:#008000;stroke:#008000;" x="112.23713" xlink:href="#m6d18e20f08" y="210.613516"/>
     <use style="fill:#008000;stroke:#008000;" x="124.168663" xlink:href="#m6d18e20f08" y="208.541543"/>
     <use style="fill:#008000;stroke:#008000;" x="130.614719" xlink:href="#m6d18e20f08" y="206.649741"/>
     <use style="fill:#008000;stroke:#008000;" x="141.613288" xlink:href="#m6d18e20f08" y="209.592544"/>
     <use style="fill:#008000;stroke:#008000;" x="145.779962" xlink:href="#m6d18e20f08" y="209.457415"/>
     <use style="fill:#008000;stroke:#008000;" x="160.501435" xlink:href="#m6d18e20f08" y="204.75794"/>
     <use style="fill:#008000;stroke:#008000;" x="162.483891" xlink:href="#m6d18e20f08" y="208.406414"/>
     <use style="fill:#008000;stroke:#008000;" x="185.146015" xlink:href="#m6d18e20f08" y="208.871857"/>
     <use style="fill:#008000;stroke:#008000;" x="185.680609" xlink:href="#m6d18e20f08" y="208.6016"/>
     <use style="fill:#008000;stroke:#008000;" x="205.004755" xlink:href="#m6d18e20f08" y="207.295356"/>
     <use style="fill:#008000;stroke:#008000;" x="221.294281" xlink:href="#m6d18e20f08" y="207.880914"/>
     <use style="fill:#008000;stroke:#008000;" x="174.279236" xlink:href="#m6d18e20f08" y="204.247454"/>
     <use style="fill:#008000;stroke:#008000;" x="171.989925" xlink:href="#m6d18e20f08" y="203.001267"/>
     <use style="fill:#008000;stroke:#008000;" x="211.36501" xlink:href="#m6d18e20f08" y="204.953126"/>
     <use style="fill:#008000;stroke:#008000;" x="234.679654" xlink:href="#m6d18e20f08" y="207.805842"/>
     <use style="fill:#008000;stroke:#008000;" x="281.577584" xlink:href="#m6d18e20f08" y="199.127578"/>
     <use style="fill:#008000;stroke:#008000;" x="253.863644" xlink:href="#m6d18e20f08" y="204.307511"/>
     <use style="fill:#008000;stroke:#008000;" x="250.36362" xlink:href="#m6d18e20f08" y="204.460657"/>
     <use style="fill:#008000;stroke:#008000;" x="249.110607" xlink:href="#m6d18e20f08" y="205.742878"/>
    </g>
   </g>
   <g id="PathCollection_3">
    <defs>
     <path d="M -0 4.242641 
L 2.545584 0 
L 0 -4.242641 
L -2.545584 -0 
z
" id="m29ece59c90" style="stroke:#0000ff;"/>
    </defs>
    <g clip-path="url(#p37533d18fc)">
     <use style="fill:#0000ff;stroke:#0000ff;" x="87.936318" xlink:href="#m29ece59c90" y="209.99793"/>
     <use style="fill:#0000ff;stroke:#0000ff;" x="93.086008" xlink:href="#m29ece59c90" y="208.466471"/>
     <use style="fill:#0000ff;stroke:#0000ff;" x="162.483891" xlink:href="#m29ece59c90" y="208.406414"/>
     <use style="fill:#0000ff;stroke:#0000ff;" x="185.146015" xlink:href="#m29ece59c90" y="208.871857"/>
     <use style="fill:#0000ff;stroke:#0000ff;" x="211.36501" xlink:href="#m29ece59c90" y="204.983154"/>
     <use style="fill:#0000ff;stroke:#0000ff;" x="167.433464" xlink:href="#m29ece59c90" y="205.310466"/>
     <use style="fill:#0000ff;stroke:#0000ff;" x="160.501435" xlink:href="#m29ece59c90" y="204.730914"/>
     <use style="fill:#0000ff;stroke:#0000ff;" x="281.577584" xlink:href="#m29ece59c90" y="199.773193"/>
     <use style="fill:#0000ff;stroke:#0000ff;" x="281.577584" xlink:href="#m29ece59c90" y="199.743164"/>
     <use style="fill:#0000ff;stroke:#0000ff;" x="281.577584" xlink:href="#m29ece59c90" y="198.557034"/>
     <use style="fill:#0000ff;stroke:#0000ff;" x="281.577584" xlink:href="#m29ece59c90" y="199.127578"/>
     <use style="fill:#0000ff;stroke:#0000ff;" x="281.577584" xlink:href="#m29ece59c90" y="198.481963"/>
     <use style="fill:#0000ff;stroke:#0000ff;" x="234.679654" xlink:href="#m29ece59c90" y="207.850885"/>
     <use style="fill:#0000ff;stroke:#0000ff;" x="160.912404" xlink:href="#m29ece59c90" y="204.938111"/>
     <use style="fill:#0000ff;stroke:#0000ff;" x="168.211653" xlink:href="#m29ece59c90" y="206.229341"/>
     <use style="fill:#0000ff;stroke:#0000ff;" x="171.989925" xlink:href="#m29ece59c90" y="203.001267"/>
     <use style="fill:#0000ff;stroke:#0000ff;" x="174.279795" xlink:href="#m29ece59c90" y="204.247454"/>
    </g>
   </g>
   <g id="matplotlib.axis_3">
    <g id="xtick_10">
     <g id="line2d_35">
      <g>
       <use style="stroke:#000000;stroke-width:0.8;" x="69.742717" xlink:href="#m6025a4e9ef" y="319.617323"/>
      </g>
     </g>
     <g id="text_16">
      <!-- 0 -->
      <g transform="translate(66.561467 334.21576)scale(0.1 -0.1)">
       <use xlink:href="#DejaVuSans-30"/>
      </g>
     </g>
    </g>
    <g id="xtick_11">
     <g id="line2d_36">
      <g>
       <use style="stroke:#000000;stroke-width:0.8;" x="111.787008" xlink:href="#m6025a4e9ef" y="319.617323"/>
      </g>
     </g>
     <g id="text_17">
      <!-- 25 -->
      <g transform="translate(105.424508 334.21576)scale(0.1 -0.1)">
       <use xlink:href="#DejaVuSans-32"/>
       <use x="63.623047" xlink:href="#DejaVuSans-35"/>
      </g>
     </g>
    </g>
    <g id="xtick_12">
     <g id="line2d_37">
      <g>
       <use style="stroke:#000000;stroke-width:0.8;" x="153.831299" xlink:href="#m6025a4e9ef" y="319.617323"/>
      </g>
     </g>
     <g id="text_18">
      <!-- 50 -->
      <g transform="translate(147.468799 334.21576)scale(0.1 -0.1)">
       <use xlink:href="#DejaVuSans-35"/>
       <use x="63.623047" xlink:href="#DejaVuSans-30"/>
      </g>
     </g>
    </g>
    <g id="xtick_13">
     <g id="line2d_38">
      <g>
       <use style="stroke:#000000;stroke-width:0.8;" x="195.875591" xlink:href="#m6025a4e9ef" y="319.617323"/>
      </g>
     </g>
     <g id="text_19">
      <!-- 75 -->
      <g transform="translate(189.513091 334.21576)scale(0.1 -0.1)">
       <use xlink:href="#DejaVuSans-37"/>
       <use x="63.623047" xlink:href="#DejaVuSans-35"/>
      </g>
     </g>
    </g>
    <g id="xtick_14">
     <g id="line2d_39">
      <g>
       <use style="stroke:#000000;stroke-width:0.8;" x="237.919882" xlink:href="#m6025a4e9ef" y="319.617323"/>
      </g>
     </g>
     <g id="text_20">
      <!-- 100 -->
      <g transform="translate(228.376132 334.21576)scale(0.1 -0.1)">
       <use xlink:href="#DejaVuSans-31"/>
       <use x="63.623047" xlink:href="#DejaVuSans-30"/>
       <use x="127.246094" xlink:href="#DejaVuSans-30"/>
      </g>
     </g>
    </g>
    <g id="xtick_15">
     <g id="line2d_40">
      <g>
       <use style="stroke:#000000;stroke-width:0.8;" x="279.964173" xlink:href="#m6025a4e9ef" y="319.617323"/>
      </g>
     </g>
     <g id="text_21">
      <!-- 125 -->
      <g transform="translate(270.420423 334.21576)scale(0.1 -0.1)">
       <use xlink:href="#DejaVuSans-31"/>
       <use x="63.623047" xlink:href="#DejaVuSans-32"/>
       <use x="127.246094" xlink:href="#DejaVuSans-35"/>
      </g>
     </g>
    </g>
    <g id="xtick_16">
     <g id="line2d_41">
      <g>
       <use style="stroke:#000000;stroke-width:0.8;" x="322.008465" xlink:href="#m6025a4e9ef" y="319.617323"/>
      </g>
     </g>
     <g id="text_22">
      <!-- 150 -->
      <g transform="translate(312.464715 334.21576)scale(0.1 -0.1)">
       <use xlink:href="#DejaVuSans-31"/>
       <use x="63.623047" xlink:href="#DejaVuSans-35"/>
       <use x="127.246094" xlink:href="#DejaVuSans-30"/>
      </g>
     </g>
    </g>
    <g id="xtick_17">
     <g id="line2d_42">
      <g>
       <use style="stroke:#000000;stroke-width:0.8;" x="364.052756" xlink:href="#m6025a4e9ef" y="319.617323"/>
      </g>
     </g>
     <g id="text_23">
      <!-- 175 -->
      <g transform="translate(354.509006 334.21576)scale(0.1 -0.1)">
       <use xlink:href="#DejaVuSans-31"/>
       <use x="63.623047" xlink:href="#DejaVuSans-37"/>
       <use x="127.246094" xlink:href="#DejaVuSans-35"/>
      </g>
     </g>
    </g>
    <g id="xtick_18">
     <g id="line2d_43">
      <g>
       <use style="stroke:#000000;stroke-width:0.8;" x="406.097047" xlink:href="#m6025a4e9ef" y="319.617323"/>
      </g>
     </g>
     <g id="text_24">
      <!-- 200 -->
      <g transform="translate(396.553297 334.21576)scale(0.1 -0.1)">
       <use xlink:href="#DejaVuSans-32"/>
       <use x="63.623047" xlink:href="#DejaVuSans-30"/>
       <use x="127.246094" xlink:href="#DejaVuSans-30"/>
      </g>
     </g>
    </g>
    <g id="text_25">
     <!-- Distance from tip of wedge (km) -->
     <g transform="translate(156.878476 347.893885)scale(0.1 -0.1)">
      <defs>
       <path d="M 1259 4147 
L 1259 519 
L 2022 519 
Q 2988 519 3436 956 
Q 3884 1394 3884 2338 
Q 3884 3275 3436 3711 
Q 2988 4147 2022 4147 
L 1259 4147 
z
M 628 4666 
L 1925 4666 
Q 3281 4666 3915 4102 
Q 4550 3538 4550 2338 
Q 4550 1131 3912 565 
Q 3275 0 1925 0 
L 628 0 
L 628 4666 
z
" id="DejaVuSans-44" transform="scale(0.015625)"/>
       <path d="M 2834 3397 
L 2834 2853 
Q 2591 2978 2328 3040 
Q 2066 3103 1784 3103 
Q 1356 3103 1142 2972 
Q 928 2841 928 2578 
Q 928 2378 1081 2264 
Q 1234 2150 1697 2047 
L 1894 2003 
Q 2506 1872 2764 1633 
Q 3022 1394 3022 966 
Q 3022 478 2636 193 
Q 2250 -91 1575 -91 
Q 1294 -91 989 -36 
Q 684 19 347 128 
L 347 722 
Q 666 556 975 473 
Q 1284 391 1588 391 
Q 1994 391 2212 530 
Q 2431 669 2431 922 
Q 2431 1156 2273 1281 
Q 2116 1406 1581 1522 
L 1381 1569 
Q 847 1681 609 1914 
Q 372 2147 372 2553 
Q 372 3047 722 3315 
Q 1072 3584 1716 3584 
Q 2034 3584 2315 3537 
Q 2597 3491 2834 3397 
z
" id="DejaVuSans-73" transform="scale(0.015625)"/>
       <path d="M 3122 3366 
L 3122 2828 
Q 2878 2963 2633 3030 
Q 2388 3097 2138 3097 
Q 1578 3097 1268 2742 
Q 959 2388 959 1747 
Q 959 1106 1268 751 
Q 1578 397 2138 397 
Q 2388 397 2633 464 
Q 2878 531 3122 666 
L 3122 134 
Q 2881 22 2623 -34 
Q 2366 -91 2075 -91 
Q 1284 -91 818 406 
Q 353 903 353 1747 
Q 353 2603 823 3093 
Q 1294 3584 2113 3584 
Q 2378 3584 2631 3529 
Q 2884 3475 3122 3366 
z
" id="DejaVuSans-63" transform="scale(0.015625)"/>
       <path d="M 2375 4863 
L 2375 4384 
L 1825 4384 
Q 1516 4384 1395 4259 
Q 1275 4134 1275 3809 
L 1275 3500 
L 2222 3500 
L 2222 3053 
L 1275 3053 
L 1275 0 
L 697 0 
L 697 3053 
L 147 3053 
L 147 3500 
L 697 3500 
L 697 3744 
Q 697 4328 969 4595 
Q 1241 4863 1831 4863 
L 2375 4863 
z
" id="DejaVuSans-66" transform="scale(0.015625)"/>
       <path d="M 1159 525 
L 1159 -1331 
L 581 -1331 
L 581 3500 
L 1159 3500 
L 1159 2969 
Q 1341 3281 1617 3432 
Q 1894 3584 2278 3584 
Q 2916 3584 3314 3078 
Q 3713 2572 3713 1747 
Q 3713 922 3314 415 
Q 2916 -91 2278 -91 
Q 1894 -91 1617 61 
Q 1341 213 1159 525 
z
M 3116 1747 
Q 3116 2381 2855 2742 
Q 2594 3103 2138 3103 
Q 1681 3103 1420 2742 
Q 1159 2381 1159 1747 
Q 1159 1113 1420 752 
Q 1681 391 2138 391 
Q 2594 391 2855 752 
Q 3116 1113 3116 1747 
z
" id="DejaVuSans-70" transform="scale(0.015625)"/>
       <path d="M 269 3500 
L 844 3500 
L 1563 769 
L 2278 3500 
L 2956 3500 
L 3675 769 
L 4391 3500 
L 4966 3500 
L 4050 0 
L 3372 0 
L 2619 2869 
L 1863 0 
L 1184 0 
L 269 3500 
z
" id="DejaVuSans-77" transform="scale(0.015625)"/>
       <path d="M 581 4863 
L 1159 4863 
L 1159 1991 
L 2875 3500 
L 3609 3500 
L 1753 1863 
L 3688 0 
L 2938 0 
L 1159 1709 
L 1159 0 
L 581 0 
L 581 4863 
z
" id="DejaVuSans-6b" transform="scale(0.015625)"/>
      </defs>
      <use xlink:href="#DejaVuSans-44"/>
      <use x="77.001953" xlink:href="#DejaVuSans-69"/>
      <use x="104.785156" xlink:href="#DejaVuSans-73"/>
      <use x="156.884766" xlink:href="#DejaVuSans-74"/>
      <use x="196.09375" xlink:href="#DejaVuSans-61"/>
      <use x="257.373047" xlink:href="#DejaVuSans-6e"/>
      <use x="320.751953" xlink:href="#DejaVuSans-63"/>
      <use x="375.732422" xlink:href="#DejaVuSans-65"/>
      <use x="437.255859" xlink:href="#DejaVuSans-20"/>
      <use x="469.042969" xlink:href="#DejaVuSans-66"/>
      <use x="504.248047" xlink:href="#DejaVuSans-72"/>
      <use x="543.111328" xlink:href="#DejaVuSans-6f"/>
      <use x="604.292969" xlink:href="#DejaVuSans-6d"/>
      <use x="701.705078" xlink:href="#DejaVuSans-20"/>
      <use x="733.492188" xlink:href="#DejaVuSans-74"/>
      <use x="772.701172" xlink:href="#DejaVuSans-69"/>
      <use x="800.484375" xlink:href="#DejaVuSans-70"/>
      <use x="863.960938" xlink:href="#DejaVuSans-20"/>
      <use x="895.748047" xlink:href="#DejaVuSans-6f"/>
      <use x="956.929688" xlink:href="#DejaVuSans-66"/>
      <use x="992.134766" xlink:href="#DejaVuSans-20"/>
      <use x="1023.921875" xlink:href="#DejaVuSans-77"/>
      <use x="1105.708984" xlink:href="#DejaVuSans-65"/>
      <use x="1167.232422" xlink:href="#DejaVuSans-64"/>
      <use x="1230.708984" xlink:href="#DejaVuSans-67"/>
      <use x="1294.185547" xlink:href="#DejaVuSans-65"/>
      <use x="1355.708984" xlink:href="#DejaVuSans-20"/>
      <use x="1387.496094" xlink:href="#DejaVuSans-28"/>
      <use x="1426.509766" xlink:href="#DejaVuSans-6b"/>
      <use x="1484.419922" xlink:href="#DejaVuSans-6d"/>
      <use x="1581.832031" xlink:href="#DejaVuSans-29"/>
     </g>
    </g>
   </g>
   <g id="matplotlib.axis_4">
    <g id="ytick_6">
     <g id="line2d_44">
      <g>
       <use style="stroke:#000000;stroke-width:0.8;" x="52.925" xlink:href="#m9d68db7683" y="301.48005"/>
      </g>
     </g>
     <g id="text_26">
      <!-- 30 -->
      <g transform="translate(24.820313 305.279269)scale(0.1 -0.1)">
       <defs>
        <path d="M 678 2272 
L 4684 2272 
L 4684 1741 
L 678 1741 
L 678 2272 
z
" id="DejaVuSans-2212" transform="scale(0.015625)"/>
        <path d="M 2597 2516 
Q 3050 2419 3304 2112 
Q 3559 1806 3559 1356 
Q 3559 666 3084 287 
Q 2609 -91 1734 -91 
Q 1441 -91 1130 -33 
Q 819 25 488 141 
L 488 750 
Q 750 597 1062 519 
Q 1375 441 1716 441 
Q 2309 441 2620 675 
Q 2931 909 2931 1356 
Q 2931 1769 2642 2001 
Q 2353 2234 1838 2234 
L 1294 2234 
L 1294 2753 
L 1863 2753 
Q 2328 2753 2575 2939 
Q 2822 3125 2822 3475 
Q 2822 3834 2567 4026 
Q 2313 4219 1838 4219 
Q 1578 4219 1281 4162 
Q 984 4106 628 3988 
L 628 4550 
Q 988 4650 1302 4700 
Q 1616 4750 1894 4750 
Q 2613 4750 3031 4423 
Q 3450 4097 3450 3541 
Q 3450 3153 3228 2886 
Q 3006 2619 2597 2516 
z
" id="DejaVuSans-33" transform="scale(0.015625)"/>
       </defs>
       <use xlink:href="#DejaVuSans-2212"/>
       <use x="83.789062" xlink:href="#DejaVuSans-33"/>
       <use x="147.412109" xlink:href="#DejaVuSans-30"/>
      </g>
     </g>
    </g>
    <g id="ytick_7">
     <g id="line2d_45">
      <g>
       <use style="stroke:#000000;stroke-width:0.8;" x="52.925" xlink:href="#m9d68db7683" y="271.451453"/>
      </g>
     </g>
     <g id="text_27">
      <!-- 20 -->
      <g transform="translate(24.820313 275.250672)scale(0.1 -0.1)">
       <use xlink:href="#DejaVuSans-2212"/>
       <use x="83.789062" xlink:href="#DejaVuSans-32"/>
       <use x="147.412109" xlink:href="#DejaVuSans-30"/>
      </g>
     </g>
    </g>
    <g id="ytick_8">
     <g id="line2d_46">
      <g>
       <use style="stroke:#000000;stroke-width:0.8;" x="52.925" xlink:href="#m9d68db7683" y="241.422857"/>
      </g>
     </g>
     <g id="text_28">
      <!-- 10 -->
      <g transform="translate(24.820313 245.222075)scale(0.1 -0.1)">
       <use xlink:href="#DejaVuSans-2212"/>
       <use x="83.789062" xlink:href="#DejaVuSans-31"/>
       <use x="147.412109" xlink:href="#DejaVuSans-30"/>
      </g>
     </g>
    </g>
    <g id="ytick_9">
     <g id="line2d_47">
      <g>
       <use style="stroke:#000000;stroke-width:0.8;" x="52.925" xlink:href="#m9d68db7683" y="211.39426"/>
      </g>
     </g>
     <g id="text_29">
      <!-- 0 -->
      <g transform="translate(39.5625 215.193478)scale(0.1 -0.1)">
       <use xlink:href="#DejaVuSans-30"/>
      </g>
     </g>
    </g>
    <g id="text_30">
     <!-- Elevation (km) -->
     <g transform="translate(18.740625 288.715183)rotate(-90)scale(0.1 -0.1)">
      <defs>
       <path d="M 191 3500 
L 800 3500 
L 1894 563 
L 2988 3500 
L 3597 3500 
L 2284 0 
L 1503 0 
L 191 3500 
z
" id="DejaVuSans-76" transform="scale(0.015625)"/>
      </defs>
      <use xlink:href="#DejaVuSans-45"/>
      <use x="63.183594" xlink:href="#DejaVuSans-6c"/>
      <use x="90.966797" xlink:href="#DejaVuSans-65"/>
      <use x="152.490234" xlink:href="#DejaVuSans-76"/>
      <use x="211.669922" xlink:href="#DejaVuSans-61"/>
      <use x="272.949219" xlink:href="#DejaVuSans-74"/>
      <use x="312.158203" xlink:href="#DejaVuSans-69"/>
      <use x="339.941406" xlink:href="#DejaVuSans-6f"/>
      <use x="401.123047" xlink:href="#DejaVuSans-6e"/>
      <use x="464.501953" xlink:href="#DejaVuSans-20"/>
      <use x="496.289062" xlink:href="#DejaVuSans-28"/>
      <use x="535.302734" xlink:href="#DejaVuSans-6b"/>
      <use x="593.212891" xlink:href="#DejaVuSans-6d"/>
      <use x="690.625" xlink:href="#DejaVuSans-29"/>
     </g>
    </g>
   </g>
   <g id="line2d_48">
    <path clip-path="url(#p37533d18fc)" d="M 71.424488 211.292162 
" style="fill:none;stroke:#000000;stroke-dasharray:5.55,2.4;stroke-dashoffset:0;stroke-width:1.5;"/>
   </g>
   <g id="line2d_49">
    <path clip-path="url(#p37533d18fc)" d="M 103.37815 209.352315 
" style="fill:none;stroke:#000000;stroke-dasharray:5.55,2.4;stroke-dashoffset:0;stroke-width:1.5;"/>
   </g>
   <g id="line2d_50">
    <path clip-path="url(#p37533d18fc)" d="M 137.013583 207.31037 
" style="fill:none;stroke:#000000;stroke-dasharray:5.55,2.4;stroke-dashoffset:0;stroke-width:1.5;"/>
   </g>
   <g id="line2d_51">
    <path clip-path="url(#p37533d18fc)" d="M 170.649016 205.268426 
" style="fill:none;stroke:#000000;stroke-dasharray:5.55,2.4;stroke-dashoffset:0;stroke-width:1.5;"/>
   </g>
   <g id="line2d_52">
    <path clip-path="url(#p37533d18fc)" d="M 204.284449 203.226481 
" style="fill:none;stroke:#000000;stroke-dasharray:5.55,2.4;stroke-dashoffset:0;stroke-width:1.5;"/>
   </g>
   <g id="line2d_53">
    <path clip-path="url(#p37533d18fc)" d="M 237.919882 201.184537 
" style="fill:none;stroke:#000000;stroke-dasharray:5.55,2.4;stroke-dashoffset:0;stroke-width:1.5;"/>
   </g>
   <g id="line2d_54">
    <path clip-path="url(#p37533d18fc)" d="M 271.555315 199.142592 
" style="fill:none;stroke:#000000;stroke-dasharray:5.55,2.4;stroke-dashoffset:0;stroke-width:1.5;"/>
   </g>
   <g id="line2d_55">
    <path clip-path="url(#p37533d18fc)" d="M 305.190748 197.100647 
" style="fill:none;stroke:#000000;stroke-dasharray:5.55,2.4;stroke-dashoffset:0;stroke-width:1.5;"/>
   </g>
   <g id="line2d_56">
    <path clip-path="url(#p37533d18fc)" d="M 338.826181 195.058703 
" style="fill:none;stroke:#000000;stroke-dasharray:5.55,2.4;stroke-dashoffset:0;stroke-width:1.5;"/>
   </g>
   <g id="line2d_57">
    <path clip-path="url(#p37533d18fc)" d="M 372.461614 193.016758 
" style="fill:none;stroke:#000000;stroke-dasharray:5.55,2.4;stroke-dashoffset:0;stroke-width:1.5;"/>
   </g>
   <g id="line2d_58">
    <path clip-path="url(#p37533d18fc)" d="M 0 0 
" style="fill:none;stroke:#000000;stroke-dasharray:5.55,2.4;stroke-dashoffset:0;stroke-width:1.5;"/>
   </g>
   <g id="line2d_59">
    <path clip-path="url(#p37533d18fc)" d="M 0 0 
" style="fill:none;stroke:#808080;stroke-linecap:square;stroke-width:1.5;"/>
   </g>
   <g id="line2d_60">
    <path clip-path="url(#p37533d18fc)" d="M 0 0 
" style="fill:none;stroke:#808080;stroke-linecap:square;stroke-width:1.5;"/>
   </g>
   <g id="line2d_61">
    <path clip-path="url(#p37533d18fc)" d="M 0 0 
" style="fill:none;stroke:#808080;stroke-linecap:square;stroke-width:1.5;"/>
   </g>
   <g id="line2d_62">
    <path clip-path="url(#p37533d18fc)" d="M 0 0 
" style="fill:none;stroke:#808080;stroke-linecap:square;stroke-width:1.5;"/>
   </g>
   <g id="line2d_63">
    <path clip-path="url(#p37533d18fc)" d="M 0 0 
" style="fill:none;stroke:#808080;stroke-linecap:square;stroke-width:1.5;"/>
   </g>
   <g id="line2d_64">
    <path clip-path="url(#p37533d18fc)" d="M 69.742717 211.39426 
L 73.10626 211.190065 
L 76.469803 210.985871 
L 79.833346 210.781676 
L 83.19689 210.577482 
L 86.560433 210.373287 
L 89.923976 210.169093 
L 93.28752 209.964898 
L 96.651063 209.760704 
L 100.014606 209.556509 
L 103.37815 209.352315 
L 106.741693 209.148121 
L 110.105236 208.943926 
L 113.46878 208.739732 
L 116.832323 208.535537 
L 120.195866 208.331343 
L 123.559409 208.127148 
L 126.922953 207.922954 
L 130.286496 207.718759 
L 133.650039 207.514565 
L 137.013583 207.31037 
L 140.377126 207.106176 
L 143.740669 206.901982 
L 147.104213 206.697787 
L 150.467756 206.493593 
L 153.831299 206.289398 
L 157.194843 206.085204 
L 160.558386 205.881009 
L 163.921929 205.676815 
L 167.285472 205.47262 
L 170.649016 205.268426 
L 174.012559 205.064231 
L 177.376102 204.860037 
L 180.739646 204.655842 
L 184.103189 204.451648 
L 187.466732 204.247454 
L 190.830276 204.043259 
L 194.193819 203.839065 
L 197.557362 203.63487 
L 200.920906 203.430676 
L 204.284449 203.226481 
L 207.647992 203.022287 
L 211.011535 202.818092 
L 214.375079 202.613898 
L 217.738622 202.409703 
L 221.102165 202.205509 
L 224.465709 202.001315 
L 227.829252 201.79712 
L 231.192795 201.592926 
L 234.556339 201.388731 
L 237.919882 201.184537 
L 241.283425 200.980342 
L 244.646969 200.776148 
L 248.010512 200.571953 
L 251.374055 200.367759 
L 254.737598 200.163564 
L 258.101142 199.95937 
L 261.464685 199.755175 
L 264.828228 199.550981 
L 268.191772 199.346787 
L 271.555315 199.142592 
L 274.918858 198.938398 
L 278.282402 198.734203 
L 281.645945 198.530009 
L 285.009488 198.325814 
L 288.373031 198.12162 
L 291.736575 197.917425 
L 295.100118 197.713231 
L 298.463661 197.509036 
L 301.827205 197.304842 
L 305.190748 197.100647 
L 308.554291 196.896453 
L 311.917835 196.692259 
L 315.281378 196.488064 
L 318.644921 196.28387 
L 322.008465 196.079675 
L 325.372008 195.875481 
L 328.735551 195.671286 
L 332.099094 195.467092 
L 335.462638 195.262897 
L 338.826181 195.058703 
L 342.189724 194.854508 
L 345.553268 194.650314 
L 348.916811 194.44612 
L 352.280354 194.241925 
L 355.643898 194.037731 
L 359.007441 193.833536 
L 362.370984 193.629342 
L 365.734528 193.425147 
L 369.098071 193.220953 
L 372.461614 193.016758 
L 375.825157 192.812564 
L 379.188701 192.608369 
L 382.552244 192.404175 
L 385.915787 192.19998 
L 389.279331 191.995786 
L 392.642874 191.791592 
L 396.006417 191.587397 
L 399.369961 191.383203 
L 402.733504 191.179008 
L 406.097047 190.974814 
" style="fill:none;stroke:#000000;stroke-dasharray:5.55,2.4;stroke-dashoffset:0;stroke-width:1.5;"/>
   </g>
   <g id="line2d_65">
    <path clip-path="url(#p37533d18fc)" d="M 69.742717 211.39426 
L 73.10626 212.415232 
L 76.469803 213.436204 
L 79.833346 214.457176 
L 83.19689 215.478149 
L 86.560433 216.499121 
L 89.923976 217.520093 
L 93.28752 218.541066 
L 96.651063 219.562038 
L 100.014606 220.58301 
L 103.37815 221.603983 
L 106.741693 222.624955 
L 110.105236 223.645927 
L 113.46878 224.666899 
L 116.832323 225.687872 
L 120.195866 226.708844 
L 123.559409 227.729816 
L 126.922953 228.750789 
L 130.286496 229.771761 
L 133.650039 230.792733 
L 137.013583 231.813706 
L 140.377126 232.834678 
L 143.740669 233.85565 
L 147.104213 234.876622 
L 150.467756 235.897595 
L 153.831299 236.918567 
L 157.194843 237.939539 
L 160.558386 238.960512 
L 163.921929 239.981484 
L 167.285472 241.002456 
L 170.649016 242.023428 
L 174.012559 243.044401 
L 177.376102 244.065373 
L 180.739646 245.086345 
L 184.103189 246.107318 
L 187.466732 247.12829 
L 190.830276 248.149262 
L 194.193819 249.170235 
L 197.557362 250.191207 
L 200.920906 251.212179 
L 204.284449 252.233151 
L 207.647992 253.254124 
L 211.011535 254.275096 
L 214.375079 255.296068 
L 217.738622 256.317041 
L 221.102165 257.338013 
L 224.465709 258.358985 
L 227.829252 259.379957 
L 231.192795 260.40093 
L 234.556339 261.421902 
L 237.919882 262.442874 
L 241.283425 263.463847 
L 244.646969 264.484819 
L 248.010512 265.505791 
L 251.374055 266.526764 
L 254.737598 267.547736 
L 258.101142 268.568708 
L 261.464685 269.58968 
L 264.828228 270.610653 
L 268.191772 271.631625 
L 271.555315 272.652597 
L 274.918858 273.67357 
L 278.282402 274.694542 
L 281.645945 275.715514 
L 285.009488 276.736486 
L 288.373031 277.757459 
L 291.736575 278.778431 
L 295.100118 279.799403 
L 298.463661 280.820376 
L 301.827205 281.841348 
L 305.190748 282.86232 
L 308.554291 283.883293 
L 311.917835 284.904265 
L 315.281378 285.925237 
L 318.644921 286.946209 
L 322.008465 287.967182 
L 325.372008 288.988154 
L 328.735551 290.009126 
L 332.099094 291.030099 
L 335.462638 292.051071 
L 338.826181 293.072043 
L 342.189724 294.093015 
L 345.553268 295.113988 
L 348.916811 296.13496 
L 352.280354 297.155932 
L 355.643898 298.176905 
L 359.007441 299.197877 
L 362.370984 300.218849 
L 365.734528 301.239822 
L 369.098071 302.260794 
L 372.461614 303.281766 
L 375.825157 304.302738 
L 379.188701 305.323711 
L 382.552244 306.344683 
L 385.915787 307.365655 
L 389.279331 308.386628 
L 392.642874 309.4076 
L 396.006417 310.428572 
L 399.369961 311.449544 
L 402.733504 312.470517 
L 406.097047 313.491489 
" style="fill:none;stroke:#000000;stroke-dasharray:5.55,2.4;stroke-dashoffset:0;stroke-width:1.5;"/>
   </g>
   <g id="patch_8">
    <path d="M 52.925 319.617323 
L 52.925 184.84898 
" style="fill:none;stroke:#000000;stroke-linecap:square;stroke-linejoin:miter;stroke-width:0.8;"/>
   </g>
   <g id="patch_9">
    <path d="M 52.925 319.617323 
L 422.914764 319.617323 
" style="fill:none;stroke:#000000;stroke-linecap:square;stroke-linejoin:miter;stroke-width:0.8;"/>
   </g>
   <g id="text_31">
    <!-- d -->
    <g transform="translate(56.624898 181.421609)scale(0.1 -0.1)">
     <defs>
      <path d="M 2919 2988 
L 2919 4863 
L 4044 4863 
L 4044 0 
L 2919 0 
L 2919 506 
Q 2688 197 2409 53 
Q 2131 -91 1766 -91 
Q 1119 -91 703 423 
Q 288 938 288 1747 
Q 288 2556 703 3070 
Q 1119 3584 1766 3584 
Q 2128 3584 2408 3439 
Q 2688 3294 2919 2988 
z
M 2181 722 
Q 2541 722 2730 984 
Q 2919 1247 2919 1747 
Q 2919 2247 2730 2509 
Q 2541 2772 2181 2772 
Q 1825 2772 1636 2509 
Q 1447 2247 1447 1747 
Q 1447 1247 1636 984 
Q 1825 722 2181 722 
z
" id="DejaVuSans-Bold-64" transform="scale(0.015625)"/>
     </defs>
     <use xlink:href="#DejaVuSans-Bold-64"/>
    </g>
   </g>
   <g id="legend_2">
    <g id="patch_10">
     <path d="M 57.783 316.147323 
L 242.981237 316.147323 
Q 244.369237 316.147323 244.369237 314.759323 
L 244.369237 284.893467 
Q 244.369237 283.505467 242.981237 283.505467 
L 57.783 283.505467 
Q 56.395 283.505467 56.395 284.893467 
L 56.395 314.759323 
Q 56.395 316.147323 57.783 316.147323 
z
" style="fill:#ffffff;opacity:0.8;stroke:#cccccc;stroke-linejoin:miter;"/>
    </g>
    <g id="line2d_66">
     <path d="M 59.171 289.125782 
L 73.051 289.125782 
" style="fill:none;stroke:#000000;stroke-dasharray:5.55,2.4;stroke-dashoffset:0;stroke-width:1.5;"/>
    </g>
    <g id="line2d_67"/>
    <g id="text_32">
     <!-- particle trajectories -->
     <g transform="translate(78.603 291.554782)scale(0.0694 -0.0694)">
      <defs>
       <path d="M 603 3500 
L 1178 3500 
L 1178 -63 
Q 1178 -731 923 -1031 
Q 669 -1331 103 -1331 
L -116 -1331 
L -116 -844 
L 38 -844 
Q 366 -844 484 -692 
Q 603 -541 603 -63 
L 603 3500 
z
M 603 4863 
L 1178 4863 
L 1178 4134 
L 603 4134 
L 603 4863 
z
" id="DejaVuSans-6a" transform="scale(0.015625)"/>
      </defs>
      <use xlink:href="#DejaVuSans-70"/>
      <use x="63.476562" xlink:href="#DejaVuSans-61"/>
      <use x="124.755859" xlink:href="#DejaVuSans-72"/>
      <use x="165.869141" xlink:href="#DejaVuSans-74"/>
      <use x="205.078125" xlink:href="#DejaVuSans-69"/>
      <use x="232.861328" xlink:href="#DejaVuSans-63"/>
      <use x="287.841797" xlink:href="#DejaVuSans-6c"/>
      <use x="315.625" xlink:href="#DejaVuSans-65"/>
      <use x="377.148438" xlink:href="#DejaVuSans-20"/>
      <use x="408.935547" xlink:href="#DejaVuSans-74"/>
      <use x="448.144531" xlink:href="#DejaVuSans-72"/>
      <use x="489.257812" xlink:href="#DejaVuSans-61"/>
      <use x="550.537109" xlink:href="#DejaVuSans-6a"/>
      <use x="578.320312" xlink:href="#DejaVuSans-65"/>
      <use x="639.84375" xlink:href="#DejaVuSans-63"/>
      <use x="694.824219" xlink:href="#DejaVuSans-74"/>
      <use x="734.033203" xlink:href="#DejaVuSans-6f"/>
      <use x="795.214844" xlink:href="#DejaVuSans-72"/>
      <use x="836.328125" xlink:href="#DejaVuSans-69"/>
      <use x="864.111328" xlink:href="#DejaVuSans-65"/>
      <use x="925.634766" xlink:href="#DejaVuSans-73"/>
     </g>
    </g>
    <g id="line2d_68">
     <path d="M 59.171 299.312401 
L 73.051 299.312401 
" style="fill:none;stroke:#808080;stroke-linecap:square;stroke-width:1.5;"/>
    </g>
    <g id="line2d_69"/>
    <g id="text_33">
     <!-- isochron -->
     <g transform="translate(78.603 301.741401)scale(0.0694 -0.0694)">
      <use xlink:href="#DejaVuSans-69"/>
      <use x="27.783203" xlink:href="#DejaVuSans-73"/>
      <use x="79.882812" xlink:href="#DejaVuSans-6f"/>
      <use x="141.064453" xlink:href="#DejaVuSans-63"/>
      <use x="196.044922" xlink:href="#DejaVuSans-68"/>
      <use x="259.423828" xlink:href="#DejaVuSans-72"/>
      <use x="298.287109" xlink:href="#DejaVuSans-6f"/>
      <use x="359.46875" xlink:href="#DejaVuSans-6e"/>
     </g>
    </g>
    <g id="line2d_70">
     <path d="M 59.171 309.49902 
L 73.051 309.49902 
" style="fill:none;stroke:#000000;stroke-dasharray:5.55,2.4;stroke-dashoffset:0;stroke-width:1.5;"/>
    </g>
    <g id="line2d_71"/>
    <g id="text_34">
     <!-- wedge boundary -->
     <g transform="translate(78.603 311.92802)scale(0.0694 -0.0694)">
      <defs>
       <path d="M 3116 1747 
Q 3116 2381 2855 2742 
Q 2594 3103 2138 3103 
Q 1681 3103 1420 2742 
Q 1159 2381 1159 1747 
Q 1159 1113 1420 752 
Q 1681 391 2138 391 
Q 2594 391 2855 752 
Q 3116 1113 3116 1747 
z
M 1159 2969 
Q 1341 3281 1617 3432 
Q 1894 3584 2278 3584 
Q 2916 3584 3314 3078 
Q 3713 2572 3713 1747 
Q 3713 922 3314 415 
Q 2916 -91 2278 -91 
Q 1894 -91 1617 61 
Q 1341 213 1159 525 
L 1159 0 
L 581 0 
L 581 4863 
L 1159 4863 
L 1159 2969 
z
" id="DejaVuSans-62" transform="scale(0.015625)"/>
       <path d="M 2059 -325 
Q 1816 -950 1584 -1140 
Q 1353 -1331 966 -1331 
L 506 -1331 
L 506 -850 
L 844 -850 
Q 1081 -850 1212 -737 
Q 1344 -625 1503 -206 
L 1606 56 
L 191 3500 
L 800 3500 
L 1894 763 
L 2988 3500 
L 3597 3500 
L 2059 -325 
z
" id="DejaVuSans-79" transform="scale(0.015625)"/>
      </defs>
      <use xlink:href="#DejaVuSans-77"/>
      <use x="81.787109" xlink:href="#DejaVuSans-65"/>
      <use x="143.310547" xlink:href="#DejaVuSans-64"/>
      <use x="206.787109" xlink:href="#DejaVuSans-67"/>
      <use x="270.263672" xlink:href="#DejaVuSans-65"/>
      <use x="331.787109" xlink:href="#DejaVuSans-20"/>
      <use x="363.574219" xlink:href="#DejaVuSans-62"/>
      <use x="427.050781" xlink:href="#DejaVuSans-6f"/>
      <use x="488.232422" xlink:href="#DejaVuSans-75"/>
      <use x="551.611328" xlink:href="#DejaVuSans-6e"/>
      <use x="614.990234" xlink:href="#DejaVuSans-64"/>
      <use x="678.466797" xlink:href="#DejaVuSans-61"/>
      <use x="739.746094" xlink:href="#DejaVuSans-72"/>
      <use x="780.859375" xlink:href="#DejaVuSans-79"/>
     </g>
    </g>
    <g id="PathCollection_4">
     <g>
      <use style="fill:#ffa500;stroke:#ffa500;" x="167.277766" xlink:href="#m1c98d7db83" y="289.733032"/>
     </g>
    </g>
    <g id="text_35">
     <!-- MAr data location -->
     <g transform="translate(179.769766 291.554782)scale(0.0694 -0.0694)">
      <use xlink:href="#DejaVuSans-4d"/>
      <use x="86.279297" xlink:href="#DejaVuSans-41"/>
      <use x="154.6875" xlink:href="#DejaVuSans-72"/>
      <use x="195.800781" xlink:href="#DejaVuSans-20"/>
      <use x="227.587891" xlink:href="#DejaVuSans-64"/>
      <use x="291.064453" xlink:href="#DejaVuSans-61"/>
      <use x="352.34375" xlink:href="#DejaVuSans-74"/>
      <use x="391.552734" xlink:href="#DejaVuSans-61"/>
      <use x="452.832031" xlink:href="#DejaVuSans-20"/>
      <use x="484.619141" xlink:href="#DejaVuSans-6c"/>
      <use x="512.402344" xlink:href="#DejaVuSans-6f"/>
      <use x="573.583984" xlink:href="#DejaVuSans-63"/>
      <use x="628.564453" xlink:href="#DejaVuSans-61"/>
      <use x="689.84375" xlink:href="#DejaVuSans-74"/>
      <use x="729.052734" xlink:href="#DejaVuSans-69"/>
      <use x="756.835938" xlink:href="#DejaVuSans-6f"/>
      <use x="818.017578" xlink:href="#DejaVuSans-6e"/>
     </g>
    </g>
    <g id="PathCollection_5">
     <g>
      <use style="fill:#008000;stroke:#008000;" x="167.277766" xlink:href="#m6d18e20f08" y="299.919651"/>
     </g>
    </g>
    <g id="text_36">
     <!-- ZHe data location -->
     <g transform="translate(179.769766 301.741401)scale(0.0694 -0.0694)">
      <use xlink:href="#DejaVuSans-5a"/>
      <use x="68.505859" xlink:href="#DejaVuSans-48"/>
      <use x="143.701172" xlink:href="#DejaVuSans-65"/>
      <use x="205.224609" xlink:href="#DejaVuSans-20"/>
      <use x="237.011719" xlink:href="#DejaVuSans-64"/>
      <use x="300.488281" xlink:href="#DejaVuSans-61"/>
      <use x="361.767578" xlink:href="#DejaVuSans-74"/>
      <use x="400.976562" xlink:href="#DejaVuSans-61"/>
      <use x="462.255859" xlink:href="#DejaVuSans-20"/>
      <use x="494.042969" xlink:href="#DejaVuSans-6c"/>
      <use x="521.826172" xlink:href="#DejaVuSans-6f"/>
      <use x="583.007812" xlink:href="#DejaVuSans-63"/>
      <use x="637.988281" xlink:href="#DejaVuSans-61"/>
      <use x="699.267578" xlink:href="#DejaVuSans-74"/>
      <use x="738.476562" xlink:href="#DejaVuSans-69"/>
      <use x="766.259766" xlink:href="#DejaVuSans-6f"/>
      <use x="827.441406" xlink:href="#DejaVuSans-6e"/>
     </g>
    </g>
    <g id="PathCollection_6">
     <g>
      <use style="fill:#0000ff;stroke:#0000ff;" x="167.277766" xlink:href="#m29ece59c90" y="310.10627"/>
     </g>
    </g>
    <g id="text_37">
     <!-- AFT data location -->
     <g transform="translate(179.769766 311.92802)scale(0.0694 -0.0694)">
      <use xlink:href="#DejaVuSans-41"/>
      <use x="68.408203" xlink:href="#DejaVuSans-46"/>
      <use x="124.177734" xlink:href="#DejaVuSans-54"/>
      <use x="185.261719" xlink:href="#DejaVuSans-20"/>
      <use x="217.048828" xlink:href="#DejaVuSans-64"/>
      <use x="280.525391" xlink:href="#DejaVuSans-61"/>
      <use x="341.804688" xlink:href="#DejaVuSans-74"/>
      <use x="381.013672" xlink:href="#DejaVuSans-61"/>
      <use x="442.292969" xlink:href="#DejaVuSans-20"/>
      <use x="474.080078" xlink:href="#DejaVuSans-6c"/>
      <use x="501.863281" xlink:href="#DejaVuSans-6f"/>
      <use x="563.044922" xlink:href="#DejaVuSans-63"/>
      <use x="618.025391" xlink:href="#DejaVuSans-61"/>
      <use x="679.304688" xlink:href="#DejaVuSans-74"/>
      <use x="718.513672" xlink:href="#DejaVuSans-69"/>
      <use x="746.296875" xlink:href="#DejaVuSans-6f"/>
      <use x="807.478516" xlink:href="#DejaVuSans-6e"/>
     </g>
    </g>
   </g>
  </g>
  <g id="axes_3">
   <g id="matplotlib.axis_5">
    <g id="ytick_10">
     <g id="line2d_72">
      <defs>
       <path d="M 0 0 
L 3.5 0 
" id="m1c45c2303b" style="stroke:#000000;stroke-width:0.8;"/>
      </defs>
      <g>
       <use style="stroke:#000000;stroke-width:0.8;" x="422.914764" xlink:href="#m1c45c2303b" y="156.808661"/>
      </g>
     </g>
     <g id="text_38">
      <!-- 0.00 -->
      <g transform="translate(429.914764 160.60788)scale(0.1 -0.1)">
       <use xlink:href="#DejaVuSans-30"/>
       <use x="63.623047" xlink:href="#DejaVuSans-2e"/>
       <use x="95.410156" xlink:href="#DejaVuSans-30"/>
       <use x="159.033203" xlink:href="#DejaVuSans-30"/>
      </g>
     </g>
    </g>
    <g id="ytick_11">
     <g id="line2d_73">
      <g>
       <use style="stroke:#000000;stroke-width:0.8;" x="422.914764" xlink:href="#m1c45c2303b" y="117.603325"/>
      </g>
     </g>
     <g id="text_39">
      <!-- 0.02 -->
      <g transform="translate(429.914764 121.402544)scale(0.1 -0.1)">
       <use xlink:href="#DejaVuSans-30"/>
       <use x="63.623047" xlink:href="#DejaVuSans-2e"/>
       <use x="95.410156" xlink:href="#DejaVuSans-30"/>
       <use x="159.033203" xlink:href="#DejaVuSans-32"/>
      </g>
     </g>
    </g>
    <g id="ytick_12">
     <g id="line2d_74">
      <g>
       <use style="stroke:#000000;stroke-width:0.8;" x="422.914764" xlink:href="#m1c45c2303b" y="78.397989"/>
      </g>
     </g>
     <g id="text_40">
      <!-- 0.04 -->
      <g transform="translate(429.914764 82.197208)scale(0.1 -0.1)">
       <defs>
        <path d="M 2419 4116 
L 825 1625 
L 2419 1625 
L 2419 4116 
z
M 2253 4666 
L 3047 4666 
L 3047 1625 
L 3713 1625 
L 3713 1100 
L 3047 1100 
L 3047 0 
L 2419 0 
L 2419 1100 
L 313 1100 
L 313 1709 
L 2253 4666 
z
" id="DejaVuSans-34" transform="scale(0.015625)"/>
       </defs>
       <use xlink:href="#DejaVuSans-30"/>
       <use x="63.623047" xlink:href="#DejaVuSans-2e"/>
       <use x="95.410156" xlink:href="#DejaVuSans-30"/>
       <use x="159.033203" xlink:href="#DejaVuSans-34"/>
      </g>
     </g>
    </g>
    <g id="ytick_13">
     <g id="line2d_75">
      <g>
       <use style="stroke:#000000;stroke-width:0.8;" x="422.914764" xlink:href="#m1c45c2303b" y="39.192653"/>
      </g>
     </g>
     <g id="text_41">
      <!-- 0.06 -->
      <g transform="translate(429.914764 42.991872)scale(0.1 -0.1)">
       <use xlink:href="#DejaVuSans-30"/>
       <use x="63.623047" xlink:href="#DejaVuSans-2e"/>
       <use x="95.410156" xlink:href="#DejaVuSans-30"/>
       <use x="159.033203" xlink:href="#DejaVuSans-36"/>
      </g>
     </g>
    </g>
    <g id="text_42">
     <!-- Exhumation rate ($m a^{-1}$) -->
     <g transform="translate(464.500701 149.92449)rotate(-90)scale(0.1 -0.1)">
      <use transform="translate(0 0.684375)" xlink:href="#DejaVuSans-45"/>
      <use transform="translate(63.183594 0.684375)" xlink:href="#DejaVuSans-78"/>
      <use transform="translate(122.363281 0.684375)" xlink:href="#DejaVuSans-68"/>
      <use transform="translate(185.742188 0.684375)" xlink:href="#DejaVuSans-75"/>
      <use transform="translate(249.121094 0.684375)" xlink:href="#DejaVuSans-6d"/>
      <use transform="translate(346.533203 0.684375)" xlink:href="#DejaVuSans-61"/>
      <use transform="translate(407.8125 0.684375)" xlink:href="#DejaVuSans-74"/>
      <use transform="translate(447.021484 0.684375)" xlink:href="#DejaVuSans-69"/>
      <use transform="translate(474.804688 0.684375)" xlink:href="#DejaVuSans-6f"/>
      <use transform="translate(535.986328 0.684375)" xlink:href="#DejaVuSans-6e"/>
      <use transform="translate(599.365234 0.684375)" xlink:href="#DejaVuSans-20"/>
      <use transform="translate(631.152344 0.684375)" xlink:href="#DejaVuSans-72"/>
      <use transform="translate(672.265625 0.684375)" xlink:href="#DejaVuSans-61"/>
      <use transform="translate(733.544922 0.684375)" xlink:href="#DejaVuSans-74"/>
      <use transform="translate(772.753906 0.684375)" xlink:href="#DejaVuSans-65"/>
      <use transform="translate(834.277344 0.684375)" xlink:href="#DejaVuSans-20"/>
      <use transform="translate(866.064453 0.684375)" xlink:href="#DejaVuSans-28"/>
      <use transform="translate(905.078125 0.684375)" xlink:href="#DejaVuSans-6d"/>
      <use transform="translate(1002.490234 0.684375)" xlink:href="#DejaVuSans-61"/>
      <use transform="translate(1064.726562 38.965625)scale(0.7)" xlink:href="#DejaVuSans-2212"/>
      <use transform="translate(1123.378906 38.965625)scale(0.7)" xlink:href="#DejaVuSans-31"/>
      <use transform="translate(1170.649414 0.684375)" xlink:href="#DejaVuSans-29"/>
     </g>
    </g>
   </g>
   <g id="line2d_76">
    <path clip-path="url(#p922fb2ed83)" d="M 0 0 
" style="fill:none;stroke:#808080;stroke-dasharray:5.55,2.4;stroke-dashoffset:0;stroke-width:1.5;"/>
   </g>
   <g id="patch_11">
    <path d="M 52.925 156.808661 
L 52.925 22.040319 
" style="fill:none;stroke:#000000;stroke-linecap:square;stroke-linejoin:miter;stroke-width:0.8;"/>
   </g>
   <g id="patch_12">
    <path d="M 422.914764 156.808661 
L 422.914764 22.040319 
" style="fill:none;stroke:#000000;stroke-linecap:square;stroke-linejoin:miter;stroke-width:0.8;"/>
   </g>
   <g id="patch_13">
    <path d="M 52.925 156.808661 
L 422.914764 156.808661 
" style="fill:none;stroke:#000000;stroke-linecap:square;stroke-linejoin:miter;stroke-width:0.8;"/>
   </g>
  </g>
 </g>
 <defs>
  <clipPath id="p922fb2ed83">
   <rect height="134.768343" width="369.989764" x="52.925" y="22.040319"/>
  </clipPath>
  <clipPath id="p37533d18fc">
   <rect height="134.768343" width="369.989764" x="52.925" y="184.84898"/>
  </clipPath>
 </defs>
</svg>
